<svg xmlns="http://www.w3.org/2000/svg" xmlns:xlink="http://www.w3.org/1999/xlink" width="688.583" height="365.581" viewBox="0 0 688.583 365.581">
  <defs>
    <linearGradient id="linear-gradient" x1="0.5" y1="0.038" x2="0.5" y2="1" gradientUnits="objectBoundingBox">
      <stop offset="0" stop-color="#fafbfd"/>
      <stop offset="1" stop-color="#f5f6fa"/>
    </linearGradient>
    <linearGradient id="linear-gradient-5" x2="1" y2="1" gradientUnits="objectBoundingBox">
      <stop offset="0" stop-color="#23bcba"/>
      <stop offset="1" stop-color="#45e994"/>
    </linearGradient>
  </defs>
  <g id="Group_625" data-name="Group 625" transform="translate(-1484.746 -499.932)">
    <g id="Group_665" data-name="Group 665" transform="translate(1484.746 499.932)">
      <g id="Group_632" data-name="Group 632" transform="translate(152.951 46.039)">
        <path id="Path_2216" data-name="Path 2216" d="M1883.139,614.918l15.656,34.664.432-.087,46.735-9.407s-21.933-1.083-24.3-2.82c-2.228-1.637-25.986-21.348-32.718-23a2.749,2.749,0,0,0-1.038-.091Z" transform="translate(-1883.139 -614.156)" fill="#657285"/>
        <path id="Path_2217" data-name="Path 2217" d="M1913.865,677.387c1.093.163,4.357.586,8.832,1.085,12.864,1.433,35.721,3.5,45.673,1.86,8.928-1.467,56.137-9.331,88.777-15.051a52.812,52.812,0,0,0-27.888-16.7c-38.037,6.5-87.776,15.1-94.077,16.719-10.365,2.662-24.157,5.406-24.157,5.406s-.077.332-.139.852C1910.68,673.245,1910.624,676.9,1913.865,677.387Z" transform="translate(-1899.654 -634.704)" fill="#e58638"/>
        <path id="Path_2218" data-name="Path 2218" d="M1913.865,665.066c1.093.163,4.357.586,8.832,1.085,12.864,1.433,35.721,3.5,45.673,1.86,8.928-1.467,56.137-9.33,88.777-15.051,16.39-2.871,29.106-5.2,31.454-5.914,7.02-2.125,21.448-8.617,19.618-11.563s-7.6-2.862-9.383-3.868l-.075-.044c-.416-.235-1.1-.626-2.086-1.067-3.516-1.574-10.833-3.774-23.2-1.753,0,0-19.67,3.316-44.211,7.508-38.037,6.5-87.776,15.1-94.077,16.719-10.365,2.662-24.157,5.406-24.157,5.406s-.077.332-.139.852C1910.68,660.924,1910.624,664.576,1913.865,665.066Z" transform="translate(-1899.654 -622.383)" fill="#d5d6da"/>
        <path id="Path_2219" data-name="Path 2219" d="M1913.865,710.808c1.092.165,4.357.587,8.831,1.085,1.229-4.852,5.883-7.326,5.883-7.326l-17.693.41C1910.68,706.666,1910.623,710.32,1913.865,710.808Z" transform="translate(-1899.654 -668.126)" fill="#b8c1c9"/>
        <g id="Group_630" data-name="Group 630" transform="translate(54.204 8.12)">
          <g id="Group_628" data-name="Group 628" transform="translate(61.444)">
            <g id="Group_625-2" data-name="Group 625" transform="translate(20.03 5.389)">
              <path id="Path_2220" data-name="Path 2220" d="M2233.513,660.681a.541.541,0,0,1,.625.439l.1.563a.54.54,0,1,1-1.063.185l-.1-.563A.542.542,0,0,1,2233.513,660.681Z" transform="translate(-2227.702 -655.433)" fill="#657285"/>
              <path id="Path_2221" data-name="Path 2221" d="M2220.2,663a.541.541,0,0,1,.625.439l.1.563a.54.54,0,1,1-1.063.185l-.1-.563A.542.542,0,0,1,2220.2,663Z" transform="translate(-2219.757 -656.815)" fill="#657285"/>
              <path id="Path_2222" data-name="Path 2222" d="M2240.32,659.5a.541.541,0,0,1,.624.439l.1.563a.54.54,0,1,1-1.063.185l-.1-.563A.541.541,0,0,1,2240.32,659.5Z" transform="translate(-2231.765 -654.726)" fill="#657285"/>
              <path id="Path_2223" data-name="Path 2223" d="M2247.126,658.313a.541.541,0,0,1,.625.439l.1.563a.54.54,0,1,1-1.063.185l-.1-.563A.541.541,0,0,1,2247.126,658.313Z" transform="translate(-2235.828 -654.019)" fill="#657285"/>
              <path id="Path_2224" data-name="Path 2224" d="M2253.932,657.129a.542.542,0,0,1,.625.439l.1.563a.54.54,0,0,1-1.064.185l-.1-.563A.542.542,0,0,1,2253.932,657.129Z" transform="translate(-2239.891 -653.313)" fill="#657285"/>
              <path id="Path_2225" data-name="Path 2225" d="M2260.74,655.945h0a.541.541,0,0,1,.625.439l.1.563a.542.542,0,0,1-.439.624h0a.542.542,0,0,1-.625-.439l-.1-.563A.541.541,0,0,1,2260.74,655.945Z" transform="translate(-2243.954 -652.606)" fill="#657285"/>
              <path id="Path_2226" data-name="Path 2226" d="M2267.546,654.761a.541.541,0,0,1,.624.439l.1.563a.54.54,0,1,1-1.063.185l-.1-.563A.542.542,0,0,1,2267.546,654.761Z" transform="translate(-2248.017 -651.899)" fill="#657285"/>
              <path id="Path_2227" data-name="Path 2227" d="M2274.353,653.577a.541.541,0,0,1,.624.439l.1.563a.54.54,0,1,1-1.063.185l-.1-.563A.541.541,0,0,1,2274.353,653.577Z" transform="translate(-2252.08 -651.192)" fill="#657285"/>
              <path id="Path_2228" data-name="Path 2228" d="M2281.158,652.393a.541.541,0,0,1,.624.439l.1.563a.54.54,0,0,1-1.064.185l-.1-.563A.542.542,0,0,1,2281.158,652.393Z" transform="translate(-2256.143 -650.485)" fill="#657285"/>
              <path id="Path_2229" data-name="Path 2229" d="M2287.966,651.209a.541.541,0,0,1,.625.439l.1.563a.54.54,0,1,1-1.063.185l-.1-.563A.541.541,0,0,1,2287.966,651.209Z" transform="translate(-2260.206 -649.779)" fill="#657285"/>
              <path id="Path_2230" data-name="Path 2230" d="M2294.635,650.048a.542.542,0,0,1,.625.439l.1.563a.54.54,0,0,1-1.064.185l-.1-.563A.542.542,0,0,1,2294.635,650.048Z" transform="translate(-2264.188 -649.086)" fill="#657285"/>
              <path id="Path_2231" data-name="Path 2231" d="M2301.442,648.864a.541.541,0,0,1,.625.439l.1.563a.54.54,0,0,1-1.064.185l-.1-.563A.541.541,0,0,1,2301.442,648.864Z" transform="translate(-2268.251 -648.379)" fill="#657285"/>
              <path id="Path_2232" data-name="Path 2232" d="M2308.249,647.68a.542.542,0,0,1,.625.439l.1.563a.54.54,0,0,1-1.064.185l-.1-.563A.541.541,0,0,1,2308.249,647.68Z" transform="translate(-2272.314 -647.672)" fill="#657285"/>
            </g>
            <path id="Path_2233" data-name="Path 2233" d="M2363.7,635.249l2.983-.948c.983.441,1.67.832,2.086,1.067l-4.567,1.454a.826.826,0,1,1-.5-1.574Z" transform="translate(-2285.307 -634.301)" fill="#657285"/>
            <g id="Group_626" data-name="Group 626" transform="translate(5.45 12.331)">
              <path id="Path_2234" data-name="Path 2234" d="M2185.247,670.633a1.038,1.038,0,0,0,.182-.016l.834-.145a1.061,1.061,0,0,0,.861-1.224l-.6-3.476a1.058,1.058,0,0,0-1.224-.861l-.834.145a1.061,1.061,0,0,0-.861,1.224l.6,3.476A1.06,1.06,0,0,0,2185.247,670.633Zm.167-.1a.975.975,0,0,1-1.126-.792l-.6-3.476a.977.977,0,0,1,.792-1.126l.834-.145a.975.975,0,0,1,1.126.792l.6,3.476a.976.976,0,0,1-.792,1.126Z" transform="translate(-2183.585 -664.895)" fill="#657285"/>
            </g>
            <g id="Group_627" data-name="Group 627" transform="translate(0 13.279)">
              <path id="Path_2235" data-name="Path 2235" d="M2171.725,672.986a1.039,1.039,0,0,0,.181-.016l.835-.145a1.06,1.06,0,0,0,.862-1.224l-.6-3.476a1.058,1.058,0,0,0-1.224-.861l-.834.145a1.06,1.06,0,0,0-.861,1.224l.6,3.476A1.061,1.061,0,0,0,2171.725,672.986Zm.167-.1a.975.975,0,0,1-1.126-.792l-.6-3.476a.975.975,0,0,1,.792-1.126l.834-.145a.975.975,0,0,1,1.126.792l.6,3.476a.975.975,0,0,1-.792,1.126Z" transform="translate(-2170.062 -667.247)" fill="#657285"/>
            </g>
          </g>
          <g id="Group_629" data-name="Group 629" transform="translate(0 12.476)">
            <path id="Path_2236" data-name="Path 2236" d="M2018.068,698.16a.542.542,0,0,1,.625.439l.1.563a.54.54,0,1,1-1.063.185l-.1-.563A.542.542,0,0,1,2018.068,698.16Z" transform="translate(-2017.62 -684.893)" fill="#657285"/>
            <path id="Path_2237" data-name="Path 2237" d="M2024.875,696.976a.541.541,0,0,1,.624.439l.1.563a.54.54,0,0,1-1.064.185l-.1-.563A.541.541,0,0,1,2024.875,696.976Z" transform="translate(-2021.684 -684.186)" fill="#657285"/>
            <path id="Path_2238" data-name="Path 2238" d="M2031.681,695.792a.542.542,0,0,1,.625.439l.1.563a.54.54,0,1,1-1.063.185l-.1-.563A.541.541,0,0,1,2031.681,695.792Z" transform="translate(-2025.747 -683.479)" fill="#657285"/>
            <path id="Path_2239" data-name="Path 2239" d="M2038.488,694.607a.542.542,0,0,1,.624.439l.1.563a.54.54,0,1,1-1.064.185l-.1-.563A.541.541,0,0,1,2038.488,694.607Z" transform="translate(-2029.81 -682.772)" fill="#657285"/>
            <path id="Path_2240" data-name="Path 2240" d="M2045.294,693.423a.541.541,0,0,1,.624.44l.1.563a.54.54,0,0,1-1.064.185l-.1-.563A.542.542,0,0,1,2045.294,693.423Z" transform="translate(-2033.873 -682.065)" fill="#657285"/>
            <path id="Path_2241" data-name="Path 2241" d="M2052.1,692.24a.542.542,0,0,1,.625.439l.1.563a.54.54,0,1,1-1.063.185l-.1-.563A.542.542,0,0,1,2052.1,692.24Z" transform="translate(-2037.936 -681.359)" fill="#657285"/>
            <path id="Path_2242" data-name="Path 2242" d="M2058.907,691.055a.542.542,0,0,1,.624.44l.1.563a.54.54,0,0,1-1.064.185l-.1-.563A.541.541,0,0,1,2058.907,691.055Z" transform="translate(-2041.999 -680.651)" fill="#657285"/>
            <path id="Path_2243" data-name="Path 2243" d="M2065.714,689.871a.542.542,0,0,1,.624.439l.1.564a.54.54,0,1,1-1.063.185l-.1-.563A.542.542,0,0,1,2065.714,689.871Z" transform="translate(-2046.062 -679.945)" fill="#657285"/>
            <path id="Path_2244" data-name="Path 2244" d="M2072.52,688.687a.542.542,0,0,1,.625.439l.1.563a.54.54,0,1,1-1.063.185l-.1-.563A.542.542,0,0,1,2072.52,688.687Z" transform="translate(-2050.125 -679.238)" fill="#657285"/>
            <path id="Path_2245" data-name="Path 2245" d="M2152.722,674.736a.541.541,0,0,1,.625.439l.1.563a.54.54,0,0,1-1.064.185l-.1-.563A.541.541,0,0,1,2152.722,674.736Z" transform="translate(-2098.001 -670.91)" fill="#657285"/>
            <path id="Path_2246" data-name="Path 2246" d="M2159.529,673.551a.542.542,0,0,1,.625.44l.1.563a.541.541,0,0,1-.439.624h0a.541.541,0,0,1-.625-.439l-.1-.563A.542.542,0,0,1,2159.529,673.551Z" transform="translate(-2102.064 -670.203)" fill="#657285"/>
            <path id="Path_2247" data-name="Path 2247" d="M2166.335,672.367a.542.542,0,0,1,.625.439l.1.564a.54.54,0,0,1-1.063.185l-.1-.563A.542.542,0,0,1,2166.335,672.367Z" transform="translate(-2106.127 -669.496)" fill="#657285"/>
            <path id="Path_2248" data-name="Path 2248" d="M2173.142,671.183a.541.541,0,0,1,.624.439l.1.563a.54.54,0,1,1-1.063.185l-.1-.563A.542.542,0,0,1,2173.142,671.183Z" transform="translate(-2110.189 -668.789)" fill="#657285"/>
            <path id="Path_2249" data-name="Path 2249" d="M2179.948,670a.541.541,0,0,1,.624.439l.1.563a.54.54,0,1,1-1.064.185l-.1-.563A.542.542,0,0,1,2179.948,670Z" transform="translate(-2114.253 -668.082)" fill="#657285"/>
            <path id="Path_2250" data-name="Path 2250" d="M2186.754,668.815a.541.541,0,0,1,.625.439l.1.563a.54.54,0,1,1-1.063.185l-.1-.563A.542.542,0,0,1,2186.754,668.815Z" transform="translate(-2118.316 -667.376)" fill="#657285"/>
            <path id="Path_2251" data-name="Path 2251" d="M2193.562,667.631a.541.541,0,0,1,.624.439l.1.563a.54.54,0,1,1-1.063.185l-.1-.563A.541.541,0,0,1,2193.562,667.631Z" transform="translate(-2122.379 -666.669)" fill="#657285"/>
            <path id="Path_2252" data-name="Path 2252" d="M2200.367,666.447a.542.542,0,0,1,.625.439l.1.563a.54.54,0,0,1-1.064.185l-.1-.563A.541.541,0,0,1,2200.367,666.447Z" transform="translate(-2126.442 -665.962)" fill="#657285"/>
            <path id="Path_2253" data-name="Path 2253" d="M2207.174,665.263a.541.541,0,0,1,.624.439l.1.563a.54.54,0,1,1-1.063.185l-.1-.563A.542.542,0,0,1,2207.174,665.263Z" transform="translate(-2130.505 -665.255)" fill="#657285"/>
            <path id="Path_2254" data-name="Path 2254" d="M2092.527,685.207a.542.542,0,0,1,.625.439l.1.563a.54.54,0,0,1-1.064.185l-.1-.563A.541.541,0,0,1,2092.527,685.207Z" transform="translate(-2062.068 -677.16)" fill="#657285"/>
            <path id="Path_2255" data-name="Path 2255" d="M2099.334,684.023a.541.541,0,0,1,.624.439l.1.563a.54.54,0,1,1-1.063.185l-.1-.563A.541.541,0,0,1,2099.334,684.023Z" transform="translate(-2066.131 -676.454)" fill="#657285"/>
            <path id="Path_2256" data-name="Path 2256" d="M2106.14,682.839a.542.542,0,0,1,.624.439l.1.563a.54.54,0,1,1-1.063.185l-.1-.563A.542.542,0,0,1,2106.14,682.839Z" transform="translate(-2070.194 -675.747)" fill="#657285"/>
            <path id="Path_2257" data-name="Path 2257" d="M2112.947,681.655a.541.541,0,0,1,.625.439l.1.563a.54.54,0,1,1-1.063.185l-.1-.563A.541.541,0,0,1,2112.947,681.655Z" transform="translate(-2074.257 -675.04)" fill="#657285"/>
            <path id="Path_2258" data-name="Path 2258" d="M2119.753,680.471a.542.542,0,0,1,.625.439l.1.563a.54.54,0,0,1-1.064.185l-.1-.563A.541.541,0,0,1,2119.753,680.471Z" transform="translate(-2078.32 -674.333)" fill="#657285"/>
            <path id="Path_2259" data-name="Path 2259" d="M2126.56,679.287a.542.542,0,0,1,.625.439l.1.563a.54.54,0,1,1-1.064.185l-.1-.563A.541.541,0,0,1,2126.56,679.287Z" transform="translate(-2082.383 -673.627)" fill="#657285"/>
            <path id="Path_2260" data-name="Path 2260" d="M2133.366,678.1a.54.54,0,0,1,.624.439l.1.563a.54.54,0,0,1-1.064.185l-.1-.563A.541.541,0,0,1,2133.366,678.1Z" transform="translate(-2086.446 -672.92)" fill="#657285"/>
            <path id="Path_2261" data-name="Path 2261" d="M2140.173,676.919a.541.541,0,0,1,.624.439l.1.563a.54.54,0,1,1-1.063.185l-.1-.563A.541.541,0,0,1,2140.173,676.919Z" transform="translate(-2090.509 -672.213)" fill="#657285"/>
            <path id="Path_2262" data-name="Path 2262" d="M2146.979,675.735a.542.542,0,0,1,.625.439l.1.563a.54.54,0,1,1-1.063.185l-.1-.563A.541.541,0,0,1,2146.979,675.735Z" transform="translate(-2094.572 -671.506)" fill="#657285"/>
          </g>
        </g>
        <path id="Path_2263" data-name="Path 2263" d="M2174.357,699.578a1.931,1.931,0,0,1-.872-3.388,10.947,10.947,0,0,1,5.022-2.465c4.136-.676,2.791,5.918,1.421,6.2A21.007,21.007,0,0,1,2174.357,699.578Z" transform="translate(-2056.037 -661.625)" fill="#b8c1c9"/>
        <path id="Path_2264" data-name="Path 2264" d="M2184.459,684.079l1.5,8.635a40.521,40.521,0,0,0,11.337-.3,32.354,32.354,0,0,0,8.492-2.316,10.891,10.891,0,0,0,1.418-.74l-1.575-9.052a4.414,4.414,0,0,0-1.615-.389c-5.5-.471-18.735,3.714-18.735,3.714Z" transform="translate(-2063.008 -653.392)" fill="#657285"/>
        <path id="Path_2265" data-name="Path 2265" d="M2232.988,679.976l1.771,10.18a10.891,10.891,0,0,0,1.418-.74l-1.574-9.052A4.412,4.412,0,0,0,2232.988,679.976Z" transform="translate(-2091.977 -653.446)" fill="#b8c1c9"/>
        <g id="Group_631" data-name="Group 631" transform="translate(69.488 17.521)">
          <path id="Path_2266" data-name="Path 2266" d="M2055.538,657.656s6.6,9.51,7.832,10.928a9.218,9.218,0,0,0,3.808,2.131l.015,0,16.316,3.216s19.962-3.364,24.3-4.2h0c.393-.076.659-.132.768-.161,1.313-.357,1.908-.891,1.634-1.23s-31.21.186-34.634.266l-.1,0c-3.333.062-3.687-.762-3.687-.762l-13.287-9.679a1.589,1.589,0,0,0-.761-.394A7.536,7.536,0,0,0,2055.538,657.656Z" transform="translate(-2055.538 -657.624)" fill="#657285"/>
          <path id="Path_2267" data-name="Path 2267" d="M2061.014,658c3.585,2.78,13.5,10.443,14.428,10.937,1,.532,28.8.917,35.636,1.019h0c.393-.076.659-.132.768-.161,1.313-.358,1.908-.891,1.634-1.23s-31.21.186-34.634.266-3.785-.76-3.785-.76l-13.287-9.679A1.588,1.588,0,0,0,2061.014,658Z" transform="translate(-2058.807 -657.85)" fill="#b8c1c9"/>
          <path id="Path_2268" data-name="Path 2268" d="M2055.538,657.656s6.6,9.51,7.832,10.928a9.218,9.218,0,0,0,3.808,2.131l.015,0a35.474,35.474,0,0,0,8.288-2.106c-3.333.062-3.687-.762-3.687-.762l-13.287-9.679a1.589,1.589,0,0,0-.761-.394A7.536,7.536,0,0,0,2055.538,657.656Z" transform="translate(-2055.538 -657.624)" fill="#657285"/>
        </g>
        <path id="Path_2269" data-name="Path 2269" d="M1907.828,649.657l46.735-9.407s-21.933-1.083-24.3-2.82c-2.228-1.637-25.986-21.348-32.717-23,6.19,5.815,20.566,19.846,20.229,24.413C1917.455,643.191,1911.042,647.673,1907.828,649.657Z" transform="translate(-1891.74 -614.318)" fill="#b8c1c9"/>
        <path id="Path_2270" data-name="Path 2270" d="M1917.369,699.88c-.175-.153-15.821-2.347-25.825.424l9.965,3.6,15.573-2.709S1918.247,700.644,1917.369,699.88Z" transform="translate(-1888.156 -664.75)" fill="#657285"/>
      </g>
      <path id="Path_2271" data-name="Path 2271" d="M1598.823,546.314V817.988c0,25.51,15.6,46.382,34.673,46.382h556.358c13.523,0,25.283-10.474,31-25.665a59.128,59.128,0,0,0,3.669-20.717V546.314c0-25.51-15.6-46.382-34.673-46.382H1633.5C1614.426,499.932,1598.823,520.8,1598.823,546.314Z" transform="translate(-1560.469 -499.932)" fill="url(#linear-gradient)"/>
      <rect id="Rectangle_1262" data-name="Rectangle 1262" width="10.754" height="365" transform="translate(477.865 0)" fill="#f5f6fa"/>
      <rect id="Rectangle_1263" data-name="Rectangle 1263" width="10.754" height="365" transform="translate(178.806 0)" fill="#f5f6fa"/>
      <path id="Path_2272" data-name="Path 2272" d="M2167.916,877.256a15.013,15.013,0,0,0-3.62-.755l5.637-10.029-1.471-.364c-1.47-.364-10.4,5.813-11.188,6.291-.639.388-5.293.287-7.026.235-1.236-.335-2.573-.694-3.977-1.07.726-.853,1.476-1.755,1.476-1.755a2.368,2.368,0,0,0-.693-.023.5.5,0,0,0-.249.1l-2.092,1.259c-4.994-1.333-10.655-2.827-15.659-4.142-7.557-1.986-13.615-3.564-13.615-3.564-3.812-.973-6.16-.486-7.3-.091a7.356,7.356,0,0,0-.682.276l-.025.011c-.584.266-2.386.08-3.04.951s3.679,3.3,5.815,4.155c.715.286,4.626,1.366,9.671,2.715,1.35.361,2.78.741,4.252,1.13l-.245.922a3.36,3.36,0,0,0,.423.27,10.158,10.158,0,0,0,2.591.958,12.716,12.716,0,0,0,3.536.4l.077-.292a8.329,8.329,0,0,0,1.408-.008.594.594,0,0,0,.313-.123c6.949,1.817,13.265,3.447,14.983,3.887,3.066.785,10.269.77,14.33.676h.028c1.142-.027,2.032-.059,2.508-.082l.256-.013a1.1,1.1,0,0,0,.459-.125,1.418,1.418,0,0,0,.616-1.144Z" transform="translate(-1862.221 -716.585)" fill="#657285" opacity="0.1"/>
      <g id="Group_635" data-name="Group 635" transform="translate(84.72 235.599)">
        <g id="Group_633" data-name="Group 633" transform="translate(2.495 17.451)">
          <path id="Path_2273" data-name="Path 2273" d="M1770.439,1152.7c29.035,0,46.734-18.047,47.506-18.85l-6-5.766,3,2.883-2.991-2.89a55.444,55.444,0,0,1-12.25,8.774,60.68,60.68,0,0,1-32.9,7.423c-27.785-1.621-40.2-16.378-40.322-16.527l-6.432,5.277c.594.723,14.887,17.724,46.269,19.555Q1768.414,1152.706,1770.439,1152.7Z" transform="translate(-1720.047 -1127.751)" fill="#dfe1ea"/>
        </g>
        <g id="Group_634" data-name="Group 634">
          <path id="Path_2274" data-name="Path 2274" d="M1713.857,1086.782v125.326a2.452,2.452,0,0,0,2.547,2.328h4.669c.023,0,.047,0,.07,0a2.443,2.443,0,0,0,2.477-2.326V1086.782a2.443,2.443,0,0,0-2.477-2.326c-.023,0-.047,0-.07,0H1716.4A2.452,2.452,0,0,0,1713.857,1086.782Z" transform="translate(-1713.857 -1084.454)" fill="#dfe1ea"/>
        </g>
      </g>
      <g id="Group_638" data-name="Group 638" transform="translate(178.793 235.599)">
        <g id="Group_636" data-name="Group 636" transform="translate(2.495 17.451)">
          <path id="Path_2275" data-name="Path 2275" d="M2003.835,1152.7c29.035,0,46.734-18.047,47.506-18.85l-6-5.766,3,2.883-2.991-2.89a55.441,55.441,0,0,1-12.25,8.774,60.68,60.68,0,0,1-32.9,7.423c-27.785-1.621-40.2-16.378-40.322-16.527l-6.431,5.277c.593.723,14.886,17.724,46.269,19.555Q2001.809,1152.706,2003.835,1152.7Z" transform="translate(-1953.442 -1127.751)" fill="#dfe1ea"/>
        </g>
        <g id="Group_637" data-name="Group 637">
          <path id="Path_2276" data-name="Path 2276" d="M1947.252,1086.782v125.326a2.452,2.452,0,0,0,2.547,2.328h4.669c.023,0,.047,0,.07,0a2.443,2.443,0,0,0,2.477-2.326V1086.782a2.443,2.443,0,0,0-2.477-2.326c-.023,0-.047,0-.07,0H1949.8A2.452,2.452,0,0,0,1947.252,1086.782Z" transform="translate(-1947.252 -1084.454)" fill="#dfe1ea"/>
        </g>
      </g>
      <path id="Rectangle_1264" data-name="Rectangle 1264" d="M0,0H140.023a0,0,0,0,1,0,0V311.174a0,0,0,0,1,0,0H122.555A122.555,122.555,0,0,1,0,188.619V0A0,0,0,0,1,0,0Z" transform="translate(688.583 363.927) rotate(180)" fill="#dfe1ea"/>
      <path id="Path_2277" data-name="Path 2277" d="M2464.125,631.069h119.16V942.252h-187.02V698.929A67.86,67.86,0,0,1,2464.125,631.069Z" transform="translate(-2036.492 -578.213)" fill="#edeff6"/>
      <path id="Path_2278" data-name="Path 2278" d="M2807.05,630.552V941.745h120.479V698.407c0-37.48-19.567-67.855-43.711-67.855Z" transform="translate(-2281.705 -577.904)" fill="#edeff6"/>
      <path id="Rectangle_1265" data-name="Rectangle 1265" d="M0,0H124.762a0,0,0,0,1,0,0V255.568a27.26,27.26,0,0,1-27.26,27.26H0a0,0,0,0,1,0,0V0A0,0,0,0,1,0,0Z" transform="translate(546.797 364.039) rotate(180)" fill="#657285"/>
      <path id="Path_2279" data-name="Path 2279" d="M2700.728,701.418a10.987,10.987,0,0,1,10.987,10.987V984.246H2586.953V701.418Z" transform="translate(-2150.321 -620.207)" fill="url(#linear-gradient)"/>
      <path id="Path_2280" data-name="Path 2280" d="M2561.048,701.272h10.772V984.159h-21.086V711.587A10.315,10.315,0,0,1,2561.048,701.272Z" transform="translate(-2128.7 -620.119)" fill="#dfe1ea"/>
      <g id="Group_640" data-name="Group 640" transform="translate(433.306 132.493)">
        <path id="Path_2281" data-name="Path 2281" d="M2692.123,831.158a12.329,12.329,0,0,1,13.778-.694c7.434,4.461,1.422,22.024-3.155,23.006s-16.273-16.463-16.273-16.463S2686.805,835.468,2692.123,831.158Z" transform="translate(-2643.034 -828.647)" fill="#496193"/>
        <path id="Path_2282" data-name="Path 2282" d="M2589.427,1062.258s-3.053-1.015-4.528-.71-6.052,2.441-6.154,2.9a1.675,1.675,0,0,0,0,.787h10.682s2.388-.464,2.8-1.872S2589.427,1062.258,2589.427,1062.258Z" transform="translate(-2578.7 -967.64)" fill="#edeff6"/>
        <path id="Path_2283" data-name="Path 2283" d="M2668.626,1366.907a2.049,2.049,0,0,1-1.336,1.775.017.017,0,0,1-.012,0c-1.423.624-3.808.482-6.387.135-.33-.044-.627-.079-.893-.1-.07-.006-.14-.013-.208-.016s-.108-.008-.16-.012c-2.567-.169-2.366.622-7.272.6-5.592-.029-7.483-1.913-7.74-2.716-.215-.681,2.233-1.209,4.97-1.818.132-.029.265-.06.4-.089.364-.081.731-.166,1.1-.248,3.263-.766,6.494-1.732,7.563-4.868,1.134-3.325.865-13.192.865-13.192h9.9s-2.6,10.9-2.327,14.042c.148,1.677.95,2.155,1.26,3.608q.034.153.061.306A9.742,9.742,0,0,1,2668.626,1366.907Z" transform="translate(-2618.041 -1137.686)" fill="#ff7955"/>
        <g id="Group_639" data-name="Group 639" transform="translate(35.816 86.948)">
          <path id="Path_2284" data-name="Path 2284" d="M2693.852,1079.99c-.836,4.692-2.028,9.541-3.064,14.584-1.664,8.109-2.919,16.723-1.634,26a32.417,32.417,0,0,1,.273,3.928c.249,16.394-7.076,46.1-7.076,46.1a12.935,12.935,0,0,1-5.324.693,16.913,16.913,0,0,1-4.351-1.192s-.693-18.42-.735-43.193c-.03-17.956-3.556-41.6-4.268-55.493a177.849,177.849,0,0,1,.5-19.609s14.6-11.741,19.847-5.734C2693.207,1052.012,2696.98,1062.437,2693.852,1079.99Z" transform="translate(-2667.56 -1044.365)" fill="#364154"/>
        </g>
        <path id="Path_2285" data-name="Path 2285" d="M2701.763,1164.619a32.414,32.414,0,0,1,.273,3.928c-10.936-15.844-13.354-50.393-13.354-50.393l12.011,5.829s1.317,6.479,2.7,14.638C2701.733,1146.73,2700.477,1155.344,2701.763,1164.619Z" transform="translate(-2644.352 -1001.464)" fill="#355493"/>
        <path id="Path_2286" data-name="Path 2286" d="M2747.006,1366a2.048,2.048,0,0,1-1.336,1.775.019.019,0,0,1-.012,0c-1.423.623-3.808.482-6.386.135-.33-.044-.627-.079-.893-.1-.07-.006-.14-.013-.207-.017l-.161-.012c-2.567-.169-2.366.622-7.271.6-5.592-.029-7.483-1.913-7.74-2.716-.216-.681,2.233-1.209,4.971-1.818.132-.029.264-.06.4-.089.365-.081.731-.166,1.1-.248,3.263-.766,6.5-1.732,7.563-4.868,1.134-3.325-.486-13.041-.486-13.041l9.174-.767s-.569,11.07-.3,14.211c.148,1.678,1,2.6,1.309,4.053.022.1.042.2.061.306A9.751,9.751,0,0,1,2747.006,1366Z" transform="translate(-2664.83 -1136.775)" fill="#ff7955"/>
        <path id="Path_2287" data-name="Path 2287" d="M2721.615,1189.4a22.253,22.253,0,0,1-4.057,1.455,19.486,19.486,0,0,1-5.226-.324,239.2,239.2,0,0,0-4.987-30.876,288.915,288.915,0,0,0-14.926-47.3c-1.449-3.425-7.427-19.636-8.441-23.727-3.067-12.362.012-11.03.012-11.03l26.811-3.146s3.3,1.7,4.824,19.153c.455,5.228.511,27.8,1.2,32.078a47.881,47.881,0,0,0,2.3,9.61C2724.106,1147.517,2721.615,1189.4,2721.615,1189.4Z" transform="translate(-2640.732 -975.376)" fill="#364154"/>
        <path id="Path_2288" data-name="Path 2288" d="M2747.006,1393.046a2.048,2.048,0,0,1-1.336,1.775.018.018,0,0,1-.012,0c-1.5.537-3.853.421-6.381.119-.331-.039-.628-.068-.9-.088-.07-.006-.14-.013-.207-.016l-.161-.013c-2.567-.169-2.366.622-7.271.6-5.592-.029-7.483-1.913-7.74-2.716-.216-.681,2.233-1.209,4.971-1.818a16.511,16.511,0,0,0,8.448,1.5c3.765-.361,7.61-1.87,10.311-2.245.022.1.042.2.061.306A9.752,9.752,0,0,1,2747.006,1393.046Z" transform="translate(-2664.83 -1163.825)" fill="#b84c42"/>
        <path id="Path_2289" data-name="Path 2289" d="M2668.626,1393.046a2.049,2.049,0,0,1-1.336,1.775.017.017,0,0,1-.012,0c-1.5.537-3.853.421-6.381.119-.331-.039-.628-.068-.9-.088-.07-.006-.14-.013-.208-.016s-.108-.008-.16-.013c-2.567-.169-2.366.622-7.272.6-5.592-.029-7.483-1.913-7.74-2.716-.215-.681,2.233-1.209,4.97-1.818a16.514,16.514,0,0,0,8.448,1.5c3.766-.361,7.61-1.87,10.311-2.245q.034.153.061.306A9.742,9.742,0,0,1,2668.626,1393.046Z" transform="translate(-2618.041 -1163.825)" fill="#b84c42"/>
        <path id="Path_2290" data-name="Path 2290" d="M2674.933,903.192c.194,0,1.446-.229,3.658-.364a16.6,16.6,0,0,0,.805-3.4,22.317,22.317,0,0,0,.079-4.957c-.054-.567-.111-.894-.111-.894l10.985-3.345c.132,2.9.295,5.174.468,6.951.513,5.214,1.125,6.173,1.312,6.347a89.663,89.663,0,0,1,9.144,1.852s-8.866,40.62-5.854,48.276a80.9,80.9,0,0,1,4.157,14.451l-32.674.406s.457-26.279-1.049-35.58S2674.933,903.192,2674.933,903.192Z" transform="translate(-2630.637 -865.409)" fill="#edeff6"/>
        <path id="Path_2291" data-name="Path 2291" d="M2699.625,899.428c8.3-.18,10.953-9.2,10.953-9.2l-10.985,3.345s.056.328.111.894A22.317,22.317,0,0,1,2699.625,899.428Z" transform="translate(-2650.865 -865.409)" fill="#edeff6"/>
        <path id="Path_2292" data-name="Path 2292" d="M2696.494,967.7c.478,5.377,5.5,17.664,4.414,20.281-1.138,2.748-2.721,4.141-6.183,4.936a64.04,64.04,0,0,1-10.306,1.046c-9.844.489-20.393-.748-21.828-5.428-.688-2.246-.423-10.937-.058-14.948.754-8.3-.826-20.215-1.057-27.924-.19-6.43,3.688-21.062,3.688-21.062s1.75-1.1,7.24-2.21c0,0,.577,7.6,4.543,8.254,6.858,1.132,12.385-5.15,14-7.68,0,0,7.877,1.988,10.188,4.623,2.189,2.495-.806,20.981-1.472,22.753-.575,1.521-1.118,3.006-1.592,4.5A31.38,31.38,0,0,0,2696.494,967.7Z" transform="translate(-2628.108 -884.603)" fill="#ffce3a"/>
        <path id="Path_2293" data-name="Path 2293" d="M2813.751,1062.332s3.054-1.006,4.528-.7,6.052,2.42,6.154,2.873a1.643,1.643,0,0,1,0,.78h-10.683s-2.388-.46-2.795-1.855S2813.751,1062.332,2813.751,1062.332Z" transform="translate(-2717.321 -967.689)" fill="#edeff6"/>
        <path id="Path_2294" data-name="Path 2294" d="M2689.1,868.237s13.148,2.641,14.666-5.573,4.238-13.4-4.093-15.437-10.545.8-11.719,3.417S2685.722,867.338,2689.1,868.237Z" transform="translate(-2643.242 -839.324)" fill="#edeff6"/>
        <path id="Path_2296" data-name="Path 2296" d="M2693.644,969.115a80.177,80.177,0,0,1,6.639-20.293l6.833-14.227c-.283-2.293,2.337-8.6,2.457-10.91,0,0,7.772.269,11.376,3.2,4.075,3.316,6.8,14.276,11.778,33.47,0,0,8.225,13.709,10.844,19.148a4.653,4.653,0,0,1-1.472,1.3,7.774,7.774,0,0,1-2.151.759s-14.837-14.483-15.812-16.773c-.421-.988-3.376-5.222-6.52-11.251l-.005.042c-.582,4.747-1.16,8.848-1.6,10.649-1.373,5.644,8.544,31.687,8.086,33.26-.163.563-3.607.834-8.1.838-8.072.008-19.54-.844-21.5-2.411C2692.868,994.617,2691.65,981.269,2693.644,969.115Z" transform="translate(-2646.696 -885.379)" fill="#496193"/>
        <path id="Path_2297" data-name="Path 2297" d="M2720.424,923.532l-8.771,25.191,8.771-8.293-.664-2.578a6.151,6.151,0,0,0,2.834-.349c.818-.528,2.723-13.409,2.723-13.409a11.688,11.688,0,0,0-2.439-.508A22.216,22.216,0,0,0,2720.424,923.532Z" transform="translate(-2658.064 -885.28)" fill="#496193"/>
        <path id="Path_2298" data-name="Path 2298" d="M2615.058,959.381c6.788-15.728,7.7-30.42,11.776-33.767,3.6-2.958,11.376-3.23,11.376-3.23v.006l.015,0-.013.066c-.914,5.247-1.815,8.033-1.575,13.663a80.175,80.175,0,0,0,1.622,11.932s6.227,47.771,5.3,47.852c-7.044.61-16.931-6.5-16.931-6.5,2.136-5.75,1.367-32.878,1.367-32.882l-.094.166c-2.185,3.83-3.934,6.428-4.251,7.178-.974,2.311-15.813,16.921-15.813,16.921a7.716,7.716,0,0,1-2.149-.766c-.1-.056-.188-.112-.275-.171a4.566,4.566,0,0,1-1.2-1.145C2606.832,973.209,2615.058,959.381,2615.058,959.381Z" transform="translate(-2593.93 -884.602)" fill="#496193"/>
        <path id="Path_2299" data-name="Path 2299" d="M2680.311,922.386s-1.847,19.914.049,25.661c0,0-5.428-8.595-4.411-10.375l1.967-1.3s-3.8-.493-3.086-2.675l3.646-11.17a3.859,3.859,0,0,1,.836-.144Z" transform="translate(-2636.03 -884.603)" fill="#496193"/>
        <path id="Path_2300" data-name="Path 2300" d="M2732.919,1014.339c0,6.074,3.723,21.577,7.142,28.274,4.493,0,7.937-.275,8.1-.838.458-1.573-9.46-27.616-8.086-33.26.438-1.8,1.017-5.9,1.6-10.649C2738.632,1001.344,2732.919,1008.643,2732.919,1014.339Z" transform="translate(-2670.759 -929.66)" fill="#496193"/>
        <path id="Path_2301" data-name="Path 2301" d="M2607.183,1012.442c.087.058.179.114.275.17a7.719,7.719,0,0,0,2.15.766s14.84-14.61,15.813-16.921c.316-.75,2.066-3.349,4.251-7.178.359-2.838,1.222-10.3-.264-12.1-1.81-2.2-6.208,16.3-7.63,18.364C2620.626,997.222,2610.258,1007.55,2607.183,1012.442Z" transform="translate(-2595.703 -917.203)" fill="#496193"/>
        <path id="Path_2302" data-name="Path 2302" d="M2686.191,836.569c6.486-6.392,10.226-6.176,13.022-4.2,1.788,1.26,4.4,5.606,5.344,6.924,1.859,2.6-2.379,15.166-2.379,15.166a14.411,14.411,0,0,0,.136-3.356c-.4,1.857-.8,3.133-.8,3.133a44.79,44.79,0,0,0-6.958-10.729,21.451,21.451,0,0,1-2.839-3.791c-4.129,1.529-6.4,8.165-6.4,8.165C2683.819,844.736,2683.4,839.323,2686.191,836.569Z" transform="translate(-2641.641 -830.137)" fill="#496193"/>
      </g>
      <g id="Group_643" data-name="Group 643" transform="translate(272.927 234.584)">
        <g id="Group_641" data-name="Group 641" transform="translate(2.495 17.451)">
          <path id="Path_2303" data-name="Path 2303" d="M2237.382,1150.185c29.035,0,46.734-18.047,47.507-18.85l-6-5.766,3,2.883-2.992-2.89a55.446,55.446,0,0,1-12.25,8.774,60.678,60.678,0,0,1-32.9,7.423c-27.785-1.621-40.2-16.378-40.322-16.527l-6.432,5.277c.593.723,14.887,17.724,46.269,19.555Q2235.356,1150.187,2237.382,1150.185Z" transform="translate(-2186.99 -1125.232)" fill="#dfe1ea"/>
        </g>
        <g id="Group_642" data-name="Group 642">
          <path id="Path_2304" data-name="Path 2304" d="M2414.6,1084.263V1209.59a2.452,2.452,0,0,0,2.547,2.328h4.67a2.452,2.452,0,0,0,2.547-2.328V1084.263a2.452,2.452,0,0,0-2.547-2.328h-4.67A2.452,2.452,0,0,0,2414.6,1084.263Z" transform="translate(-2320.362 -1081.935)" fill="#dfe1ea"/>
          <path id="Path_2305" data-name="Path 2305" d="M2180.8,1084.263V1209.59a2.452,2.452,0,0,0,2.547,2.328h4.669c.023,0,.047,0,.07,0a2.443,2.443,0,0,0,2.477-2.326V1084.263a2.443,2.443,0,0,0-2.477-2.326c-.023,0-.047,0-.07,0h-4.669A2.452,2.452,0,0,0,2180.8,1084.263Z" transform="translate(-2180.799 -1081.935)" fill="#dfe1ea"/>
        </g>
      </g>
      <g id="Group_644" data-name="Group 644" transform="translate(394.673 230.366)">
        <path id="Path_2306" data-name="Path 2306" d="M2516.518,1140.025a3.646,3.646,0,0,1,3.531-2.782h118.794c.082,0,.164-.011.247-.011h114.058a3.969,3.969,0,0,1,3.838,2.812c.08.259,9.224.555,9.224.814v86.65c0,9.287-8.276,16.946-18.35,16.946H2635.491a.284.284,0,0,1-.074-.017H2533.363a17,17,0,0,1-16.947-16.946v-86.617A3.586,3.586,0,0,1,2516.518,1140.025Z" transform="translate(-2502.888 -1110.726)" fill="url(#linear-gradient)"/>
        <path id="Path_2307" data-name="Path 2307" d="M2490.22,1071.471h264.745a7.106,7.106,0,0,1,7.085,7.085v18.378a7.283,7.283,0,0,1-7.261,7.262H2490.4a7.575,7.575,0,0,1-7.553-7.553v-17.8A7.391,7.391,0,0,1,2490.22,1071.471Z" transform="translate(-2482.851 -1071.471)" fill="url(#linear-gradient)"/>
      </g>
      <g id="Group_645" data-name="Group 645" transform="translate(479.143 129.593)">
        <path id="Path_2308" data-name="Path 2308" d="M2692.423,829.444l1.243-6.917s13.258-3.449,18.718,2c0,0,1.119,3.714.111,5.977,0,0-12.651-.707-16.653,1.61Z" transform="translate(-2692.423 -821.452)" fill="#ffce3a"/>
        <path id="Path_2309" data-name="Path 2309" d="M2697.464,823.77s9.934-.849,13.984,1.126a43.672,43.672,0,0,0-11.364.681,74.434,74.434,0,0,1,12.755,1.273,14.744,14.744,0,0,0-.454-2.316c-5.46-5.454-18.718-2-18.718-2l-1.243,6.917,3.419,2.675S2695.89,825.221,2697.464,823.77Z" transform="translate(-2692.423 -821.452)" fill="#ffce3a"/>
      </g>
      <rect id="Rectangle_1268" data-name="Rectangle 1268" width="97.917" height="12.897" transform="translate(440.393 76.44)" fill="url(#linear-gradient-5)"/>
      <rect id="Rectangle_1269" data-name="Rectangle 1269" width="2.282" height="12.897" transform="translate(538.309 76.44)" fill="url(#linear-gradient-5)"/>
      <g id="Group_647" data-name="Group 647" transform="translate(197.402 169.573)">
        <path id="Path_2313" data-name="Path 2313" d="M2066.069,1042.971s12.265-5.583,21.544-.7,3.607,45.2-9.662,49.1h0S2049.464,1126,2066.069,1042.971Z" transform="translate(-2033.685 -992.053)" fill="#dfe1ea"/>
        <path id="Path_2314" data-name="Path 2314" d="M2006.448,1038.913c-.6-4.716.571-13.264.571-13.264s-4.166-.215-6.5,5.276c-4.835,11.38-2.735,35.946-2.442,39.463,0,0-1.661,6.984.807,19.063a20.779,20.779,0,0,1-1.149,2.416,1.461,1.461,0,0,0-.12.156h0a1.425,1.425,0,0,0-.021,1.547l1.6,2.532a1.414,1.414,0,0,0,.6.528h0a1.462,1.462,0,0,0,.248.087l1.978.468.2-6.741c0-.005-.012-.005-.023,0C2002.876,1083.808,2007,1043.241,2006.448,1038.913Zm-5.111,52.021-.042-.055.084.05C2001.358,1090.936,2001.342,1090.94,2001.337,1090.934Z" transform="translate(-1995.781 -983.324)" fill="#edeff6"/>
        <path id="Path_2315" data-name="Path 2315" d="M2084.942,1389.394l-1.576,5.689h-13.317S2066.083,1387.809,2084.942,1389.394Z" transform="translate(-2038.956 -1200.323)" fill="#edeff6"/>
        <path id="Path_2316" data-name="Path 2316" d="M2014.09,1389.394l-1.576,5.689H1999.2S1995.232,1387.809,2014.09,1389.394Z" transform="translate(-1996.662 -1200.323)" fill="#edeff6"/>
        <path id="Path_2317" data-name="Path 2317" d="M2050.216,938.146c.87-3.772-.2-6.558-1.935-9.24-1.661-2.572-3.994-2.684-6.235-4.862a14.435,14.435,0,0,0-9.176-3.4c-10.02,0-18.7,6.135-16.72,16.538.629,3.305.1,5.91,2.777,9.773,3.344,4.823,7.41,8.693,13.943,8.693a12.5,12.5,0,0,0,9.176-3.326c1.456-1.376,3.543-1.545,4.824-3.043C2049.458,946.254,2049.265,942.267,2050.216,938.146Z" transform="translate(-2006.82 -920.644)" fill="#496193"/>
        <path id="Path_2318" data-name="Path 2318" d="M2037.477,986.917s2.2,8.5-2.247,12.112l12.49,6.384,1.645-8.262a40.7,40.7,0,0,1-1.712-15.444Z" transform="translate(-2018.379 -957.095)" fill="#edeff6"/>
        <path id="Path_2319" data-name="Path 2319" d="M2032.434,972.338s12.784,1.558,13.057-7.448-5.056-14.841-8.613-14.774c-7.092.133-8.262,3-9.084,5.983S2026.549,971.7,2032.434,972.338Z" transform="translate(-2013.658 -938.236)" fill="#edeff6"/>
        <path id="Path_2320" data-name="Path 2320" d="M2006.007,1174.13l25.264,2.088s2.967,44.31-13.633,85.385l-14.155-.269Z" transform="translate(-1999.428 -1071.959)" fill="#496193"/>
        <path id="Path_2321" data-name="Path 2321" d="M2065.019,1180.445s7.773,30.2,1.47,85.307l-17.147,0-8.225-71.548c-.314-2.119-4.3-5.069-4.3-5.069l-.155-8.176Z" transform="translate(-2019.234 -1075.729)" fill="#496193"/>
        <path id="Path_2322" data-name="Path 2322" d="M2039.78,1039.9l1.653-13.569c-.25-.351-.451-.651-.7-.951-2.9-3.555-14.07-5.107-16.322-5.357a2.561,2.561,0,0,1-.418.53c-2.053,1.853-4.84,3.826-8.545,3.325-3.155-.4-3.67-2.053-3.57-3.855a35.179,35.179,0,0,0-10.367,3.181c-6.734,2.524-8.087,24.894-8.087,24.894.894-.266,5.363.516,7.437.9l-.835,33.159c16.072,7.01,39.2,2.5,39.2,2.5l-.05-.2-1.552-26.537,1.452-12.117Z" transform="translate(-1993.423 -979.967)" fill="#ffce3a"/>
        <path id="Path_2324" data-name="Path 2324" d="M2082.236,1111.616c1.093,1.368,6.479,1.849,9.715.858l-1.577-26.5,2.168-18.025-2.094-.973s-9.2,7.379-8.124,13.26S2080.829,1109.857,2082.236,1111.616Z" transform="translate(-2046.18 -1007.995)" fill="#ffce3a"/>
        <path id="Path_2325" data-name="Path 2325" d="M2095.135,1041.253s-7.11,2.653-10.165,4.556a4.711,4.711,0,0,0-1.251.952L2074,1027.433l-1.853-3.655-1.7-3.455-.149-.3s.134.009.4.05a57.118,57.118,0,0,1,6.008,1,38.534,38.534,0,0,1,5.208,1.5h.05a11.733,11.733,0,0,1,4.656,2.8c.25.3.451.6.7.951C2090.578,1030.988,2095.135,1041.253,2095.135,1041.253Z" transform="translate(-2039.314 -979.967)" fill="#f2c335"/>
        <path id="Path_2326" data-name="Path 2326" d="M2076.5,1078.71s-34.6-37-12.518-53.375a23.358,23.358,0,0,1,4.555-2.7,38.524,38.524,0,0,1,5.208,1.5,16.7,16.7,0,0,0-7.911,4.856c-5.357,5.958-6.555,18.774,11.67,45.161Z" transform="translate(-2031.147 -981.524)" fill="#dfe1ea"/>
        <path id="Path_2327" data-name="Path 2327" d="M2043.183,944.435s10.925-.007,8.414,7.494c-1.582,4.728,3.679,5.462,3.679,5.462l2.532-7.577-1.585-5.9-7.1-3.453Z" transform="translate(-2023.127 -932.472)" fill="#496193"/>
        <path id="Path_2328" data-name="Path 2328" d="M2085.732,1072.869c-3.376,1.043-8.475,3.312-10.027,4.838,1.717,3.948,2.683,6.559,2.683,6.559-1.291-.574-7.966-1.116-11.426-1.363-.393-.029-3.557-1.066-3.557-1.066s-.026-5.4-6.206-5.83c0,0-2.574.015-2.046,1.773s.583.994,1.272,3.49,2.484,4.395,4.4,4.508c9.175,7.715,21.809,7.777,25.617,7.6a1.518,1.518,0,0,0,1.413-1.168C2089.3,1085.941,2088.307,1079.438,2085.732,1072.869Z" transform="translate(-2030.23 -1011.513)" fill="#edeff6"/>
      </g>
      <g id="Group_648" data-name="Group 648" transform="translate(36.045 215.279)">
        <path id="Path_2329" data-name="Path 2329" d="M1596.743,1350.752s-4.4,4.074-3.538,6.969,4.825,4.825,5.361,8.363,2.68,5.468,4.611,5.468h9.2s1.421-2.49-2.01-3.24-4.725-4.908-4.51-8.769a69.1,69.1,0,0,0-.322-9.007l-7.291-1.715Z" transform="translate(-1593.094 -1221.945)" fill="#edeff6"/>
        <path id="Path_2330" data-name="Path 2330" d="M1736.371,1384.784a10.405,10.405,0,0,0,2.709.4h22.253c-.1-.713-.686-2.763-3.946-3.292-3.842-.622-10.5-2.857-11.989-7.771-.046-.16-.089-.322-.126-.485-1.18-5.254-9.757,1.609-9.757,1.609s-.026.21-.063.566C1735.253,1377.734,1734.744,1383.968,1736.371,1384.784Z" transform="translate(-1677.933 -1235.573)" fill="#edeff6"/>
        <path id="Path_2331" data-name="Path 2331" d="M1733.783,1052.252s-1.3,16.254-2.834,35.792c-2.081,26.541-4.584,59.141-4.832,65.317-.428,10.724-2.145,27.879-2.145,27.879s-4.073,4.076-12.223,2.358c0,0-7.263-24.488-9.338-50.4-.032-.424-.065-.852-.1-1.28-1.93-26.376-4.931-81.918-4.931-81.918Z" transform="translate(-1655.348 -1043.568)" fill="#496193"/>
        <path id="Path_2332" data-name="Path 2332" d="M1733.783,1052.252s-1.3,16.254-2.834,35.792l-28.538,45.155c-.032-.424-.065-.852-.1-1.28-1.93-26.376-4.931-81.918-4.931-81.918Z" transform="translate(-1655.348 -1043.568)" fill="#496193"/>
        <path id="Path_2333" data-name="Path 2333" d="M1670.983,1044.655s-23.481,58.865-38.921,86.528-20.265,35.383-20.265,35.383-8.846-3.539-9.65-5.951c0,0,5.9-53.4,16.244-66.424,5.842-7.356,12.706-29.432,13.027-37.152s2.091-23,2.091-23Z" transform="translate(-1598.498 -1034.04)" fill="#496193"/>
      </g>
      <path id="Path_2334" data-name="Path 2334" d="M1880.058,1040.163s8.286,3.977,9.4,5,3.868,6.032,3.656,6.41-.623.495-1.375-.025-2.859-2.69-2.936-2.287,5.625,7.114,4.617,8.534-6.726,1-9.99-1.322-6.523-10.856-7.014-11.322C1872.255,1041.2,1880.058,1040.163,1880.058,1040.163Z" transform="translate(-1725.446 -822.416)" fill="#edeff6"/>
      <path id="Path_2335" data-name="Path 2335" d="M1814.167,933.951c2.3-2,2.361-2.508,2.361-2.508s-14.693-25.408-15.967-27.852-9.148-40.6-9.148-40.6l-27.224-7.893s19.176,49.586,22.525,55.714c5.534,10.126,23.6,25.031,23.6,25.031A8.494,8.494,0,0,0,1814.167,933.951Z" transform="translate(-1659.182 -711.943)" fill="#f2c335"/>
      <path id="Path_2336" data-name="Path 2336" d="M1798.594,811.64s9.581,16.857,18.946,19.057c0,0-.39-5.662-2.67-9.536.934-1.1,1.754-2.113,2.464-3.019a56.443,56.443,0,0,0,3.478-4.87l-3.178-8.544-2.157-5.8a27.845,27.845,0,0,1-3.37,4.856A22.923,22.923,0,0,1,1798.594,811.64Z" transform="translate(-1679.72 -678.416)" fill="#edeff6"/>
      <path id="Path_2337" data-name="Path 2337" d="M1832,810.974s-1.143,8.447,5.227,14.356a56.455,56.455,0,0,0,3.478-4.87l-3.178-8.544A18.158,18.158,0,0,0,1832,810.974Z" transform="translate(-1699.614 -685.603)" fill="#edeff6"/>
      <path id="Path_2338" data-name="Path 2338" d="M1843.263,796.712s-14.315-5.581-10.7-14.442,4.2-15.549,13.49-12.361,9.679,7.289,9.192,10.54S1847.08,797.935,1843.263,796.712Z" transform="translate(-1699.647 -660.609)" fill="#edeff6"/>
      <path id="Path_2339" data-name="Path 2339" d="M1674.8,913.484c5.773,8.3,48.95,19.393,48.435,13.649a62.6,62.6,0,0,1,.006-11.333q.164-1.848.459-3.915a90.338,90.338,0,0,1,9.516-28.5q.654-1.264,1.358-2.551a87.055,87.055,0,0,0,5.985-13.449c2.992-8.644,4.2-16.917,2.688-22.322a.268.268,0,0,0-.023-.075c-9.023-4.173-12.52-20.356-12.52-20.356s-30.79,5.526-48.039,46.565c0,0-1.656,4.506-3.548,10.622-2.3,7.418-4.947,17.2-5.406,24.174C1673.484,909.3,1673.76,911.988,1674.8,913.484Z" transform="translate(-1605.127 -693.756)" fill="#ffce3a"/>
      <path id="Path_2340" data-name="Path 2340" d="M1825.435,755.982c-.1-.2-.391-.41-1.1-.627a2.976,2.976,0,0,1,1.441-.054c.4-.981,1.379-2.651,3.211-2.664a2.259,2.259,0,0,0-1.438,1.326c2.511-1.592,7.166-2.054,18.785,1.816,15.313,5.1,7.662,13.99,5.341,14.7s-6.593-3.861-10.436-4.485-5.922,4.728-7.387,5.172-.632-.774-2.166-1.994-2.416,1.65-2.382,3.665-2.958,3.926-2.958,3.926l-1.755-3.218c-1.754-3.218-1.277-14.9.4-17C1825.137,756.359,1825.285,756.171,1825.435,755.982Z" transform="translate(-1694.577 -650.781)" fill="#496193"/>
      <path id="Path_2341" data-name="Path 2341" d="M1673.815,944.289c37.153-11.207,43.063-55.5,43.063-55.5s-21.153,16.166-37.657,31.328C1676.922,927.532,1674.274,937.312,1673.815,944.289Z" transform="translate(-1605.234 -732.053)" fill="#ffce3a"/>
      <g id="Group_655" data-name="Group 655" transform="translate(129.972 216.169)">
        <path id="Path_2342" data-name="Path 2342" d="M1826.128,1080.12l7.728,7.721.107-.067,11.6-7.275s-6,1.938-6.813,1.711c-.765-.214-9.149-3.094-11.125-2.854a.806.806,0,0,0-.288.081Z" transform="translate(-1826.128 -1061.972)" fill="url(#linear-gradient-5)"/>
        <path id="Path_2343" data-name="Path 2343" d="M1844.03,1076.612c.31-.067,1.23-.285,2.483-.606,3.6-.922,9.95-2.69,12.457-4.141,2.249-1.3,14.131-8.21,22.317-13.063a15.167,15.167,0,0,0-9.188-1.652c-9.557,5.61-22.043,12.974-23.571,14.049-2.514,1.768-5.939,3.907-5.939,3.907a2.471,2.471,0,0,0,.049.243C1842.754,1075.824,1843.111,1076.81,1844.03,1076.612Z" transform="translate(-1835.954 -1048.648)" fill="#e58638"/>
        <path id="Path_2344" data-name="Path 2344" d="M1844.03,1064.214c.31-.067,1.23-.285,2.483-.606,3.6-.922,9.95-2.69,12.457-4.141,2.249-1.3,14.131-8.21,22.317-13.062,4.111-2.436,7.289-4.355,7.848-4.784,1.67-1.284,4.885-4.494,4.1-5.1s-2.333,0-2.913-.086l-.025,0c-.136-.021-.36-.056-.669-.075a11.533,11.533,0,0,0-6.411,1.887s-4.947,2.889-11.113,6.509c-9.557,5.61-22.043,12.974-23.571,14.049-2.514,1.768-5.939,3.906-5.939,3.906a2.474,2.474,0,0,0,.049.243C1842.754,1063.425,1843.111,1064.411,1844.03,1064.214Z" transform="translate(-1835.954 -1036.249)" fill="url(#linear-gradient-5)"/>
        <path id="Path_2345" data-name="Path 2345" d="M1844.1,1100.932c.31-.067,1.23-.285,2.483-.605a3.672,3.672,0,0,1,.836-2.566l-4.711,1.908C1842.826,1100.143,1843.182,1101.131,1844.1,1100.932Z" transform="translate(-1836.026 -1072.968)" fill="url(#linear-gradient-5)"/>
        <g id="Group_653" data-name="Group 653" transform="translate(17.967 0.107)" opacity="0.5">
          <g id="Group_649" data-name="Group 649" transform="translate(0 18.103)">
            <path id="Path_2346" data-name="Path 2346" d="M1871.022,1089.934h0a.156.156,0,0,0,.054-.212l-.083-.141a.155.155,0,0,0-.212-.055h0a.156.156,0,0,0-.055.212l.084.141A.155.155,0,0,0,1871.022,1089.934Z" transform="translate(-1870.704 -1086.249)" fill="#131f2d"/>
            <path id="Path_2347" data-name="Path 2347" d="M1872.729,1088.925h0a.156.156,0,0,0,.055-.212l-.084-.141a.155.155,0,0,0-.213-.054h0a.156.156,0,0,0-.054.212l.084.142A.155.155,0,0,0,1872.729,1088.925Z" transform="translate(-1871.724 -1085.647)" fill="#131f2d"/>
            <path id="Path_2348" data-name="Path 2348" d="M1874.437,1087.915h0a.155.155,0,0,0,.055-.212l-.083-.142a.156.156,0,0,0-.213-.054h0a.155.155,0,0,0-.054.213l.083.141A.155.155,0,0,0,1874.437,1087.915Z" transform="translate(-1872.743 -1085.044)" fill="#131f2d"/>
            <path id="Path_2349" data-name="Path 2349" d="M1876.146,1086.906h0a.156.156,0,0,0,.054-.212l-.083-.141a.156.156,0,0,0-.212-.055h0a.156.156,0,0,0-.055.213l.083.141A.156.156,0,0,0,1876.146,1086.906Z" transform="translate(-1873.763 -1084.442)" fill="#131f2d"/>
            <path id="Path_2350" data-name="Path 2350" d="M1877.853,1085.9h0a.156.156,0,0,0,.055-.213l-.083-.141a.155.155,0,0,0-.212-.054h0a.155.155,0,0,0-.055.212l.083.141A.156.156,0,0,0,1877.853,1085.9Z" transform="translate(-1874.782 -1083.839)" fill="#131f2d"/>
            <path id="Path_2351" data-name="Path 2351" d="M1879.561,1084.887h0a.156.156,0,0,0,.055-.212l-.084-.141a.155.155,0,0,0-.212-.055h0a.156.156,0,0,0-.054.212l.084.142A.155.155,0,0,0,1879.561,1084.887Z" transform="translate(-1875.802 -1083.236)" fill="#131f2d"/>
            <path id="Path_2352" data-name="Path 2352" d="M1881.269,1083.877h0a.157.157,0,0,0,.055-.213l-.084-.141a.155.155,0,0,0-.212-.055h0a.156.156,0,0,0-.054.213l.083.141A.156.156,0,0,0,1881.269,1083.877Z" transform="translate(-1876.821 -1082.634)" fill="#131f2d"/>
            <path id="Path_2353" data-name="Path 2353" d="M1882.977,1082.868h0a.156.156,0,0,0,.055-.213l-.083-.141a.156.156,0,0,0-.213-.055h0a.155.155,0,0,0-.054.212l.083.141A.155.155,0,0,0,1882.977,1082.868Z" transform="translate(-1877.84 -1082.031)" fill="#131f2d"/>
            <path id="Path_2354" data-name="Path 2354" d="M1884.685,1081.858h0a.155.155,0,0,0,.054-.212l-.083-.142a.155.155,0,0,0-.212-.054h0a.155.155,0,0,0-.054.212l.083.141A.155.155,0,0,0,1884.685,1081.858Z" transform="translate(-1878.86 -1081.429)" fill="#131f2d"/>
          </g>
          <g id="Group_650" data-name="Group 650" transform="translate(13.619 10.053)">
            <path id="Path_2355" data-name="Path 2355" d="M1904.811,1069.962h0a.155.155,0,0,0,.054-.212l-.083-.141a.156.156,0,0,0-.212-.054h0a.155.155,0,0,0-.054.212l.083.142A.155.155,0,0,0,1904.811,1069.962Z" transform="translate(-1904.493 -1066.277)" fill="#131f2d"/>
            <path id="Path_2356" data-name="Path 2356" d="M1906.519,1068.952h0a.155.155,0,0,0,.054-.212l-.083-.141a.156.156,0,0,0-.212-.055h0a.156.156,0,0,0-.054.213l.083.141A.156.156,0,0,0,1906.519,1068.952Z" transform="translate(-1905.513 -1065.674)" fill="#131f2d"/>
            <path id="Path_2357" data-name="Path 2357" d="M1908.226,1067.942h0a.156.156,0,0,0,.054-.212l-.084-.141a.155.155,0,0,0-.212-.055h0a.156.156,0,0,0-.055.212l.084.141A.155.155,0,0,0,1908.226,1067.942Z" transform="translate(-1906.532 -1065.071)" fill="#131f2d"/>
            <path id="Path_2358" data-name="Path 2358" d="M1909.934,1066.933h0a.155.155,0,0,0,.055-.212l-.084-.141a.155.155,0,0,0-.212-.054h0a.156.156,0,0,0-.055.212l.084.141A.155.155,0,0,0,1909.934,1066.933Z" transform="translate(-1907.552 -1064.469)" fill="#131f2d"/>
            <path id="Path_2359" data-name="Path 2359" d="M1911.642,1065.923h0a.155.155,0,0,0,.055-.212l-.084-.141a.155.155,0,0,0-.212-.055h0a.155.155,0,0,0-.055.212l.083.141A.156.156,0,0,0,1911.642,1065.923Z" transform="translate(-1908.572 -1063.866)" fill="#131f2d"/>
            <path id="Path_2360" data-name="Path 2360" d="M1913.351,1064.914h0a.156.156,0,0,0,.054-.212l-.083-.141a.155.155,0,0,0-.212-.054h0a.156.156,0,0,0-.055.212l.083.141A.156.156,0,0,0,1913.351,1064.914Z" transform="translate(-1909.591 -1063.264)" fill="#131f2d"/>
            <path id="Path_2361" data-name="Path 2361" d="M1915.058,1063.9h0a.155.155,0,0,0,.055-.212l-.083-.142a.155.155,0,0,0-.212-.054h0a.155.155,0,0,0-.055.213l.083.141A.156.156,0,0,0,1915.058,1063.9Z" transform="translate(-1910.61 -1062.661)" fill="#131f2d"/>
            <path id="Path_2362" data-name="Path 2362" d="M1916.766,1062.895h0a.156.156,0,0,0,.055-.212l-.084-.141a.155.155,0,0,0-.212-.054h0a.156.156,0,0,0-.054.212l.084.141A.155.155,0,0,0,1916.766,1062.895Z" transform="translate(-1911.63 -1062.058)" fill="#131f2d"/>
            <path id="Path_2363" data-name="Path 2363" d="M1918.474,1061.885h0a.156.156,0,0,0,.055-.213l-.084-.141a.155.155,0,0,0-.212-.055h0a.155.155,0,0,0-.055.213l.083.141A.155.155,0,0,0,1918.474,1061.885Z" transform="translate(-1912.65 -1061.456)" fill="#131f2d"/>
          </g>
          <g id="Group_651" data-name="Group 651" transform="translate(15.201)">
            <path id="Path_2364" data-name="Path 2364" d="M1925.084,1057.978h0a.155.155,0,0,0,.054-.212l-.084-.141a.155.155,0,0,0-.212-.055h0a.155.155,0,0,0-.055.212l.084.142A.156.156,0,0,0,1925.084,1057.978Z" transform="translate(-1918.177 -1049.071)" fill="#131f2d"/>
            <path id="Path_2365" data-name="Path 2365" d="M1921.744,1059.953h0a.155.155,0,0,0,.055-.212l-.083-.141a.156.156,0,0,0-.213-.054h0a.156.156,0,0,0-.054.212l.083.141A.156.156,0,0,0,1921.744,1059.953Z" transform="translate(-1916.183 -1050.249)" fill="#131f2d"/>
            <path id="Path_2366" data-name="Path 2366" d="M1926.792,1056.969h0a.155.155,0,0,0,.054-.212l-.083-.141a.156.156,0,0,0-.212-.055h0a.156.156,0,0,0-.055.212l.084.141A.156.156,0,0,0,1926.792,1056.969Z" transform="translate(-1919.196 -1048.468)" fill="#131f2d"/>
            <path id="Path_2367" data-name="Path 2367" d="M1928.5,1055.959h0a.155.155,0,0,0,.055-.212l-.083-.141a.156.156,0,0,0-.212-.055h0a.156.156,0,0,0-.055.213l.083.141A.155.155,0,0,0,1928.5,1055.959Z" transform="translate(-1920.216 -1047.865)" fill="#131f2d"/>
            <path id="Path_2368" data-name="Path 2368" d="M1930.208,1054.949h0a.156.156,0,0,0,.054-.212l-.083-.141a.155.155,0,0,0-.212-.055h0a.156.156,0,0,0-.055.212l.084.141A.155.155,0,0,0,1930.208,1054.949Z" transform="translate(-1921.235 -1047.263)" fill="#131f2d"/>
            <path id="Path_2369" data-name="Path 2369" d="M1931.916,1053.94h0a.155.155,0,0,0,.054-.212l-.084-.142a.155.155,0,0,0-.212-.054h0a.155.155,0,0,0-.055.212l.084.141A.155.155,0,0,0,1931.916,1053.94Z" transform="translate(-1922.255 -1046.66)" fill="#131f2d"/>
            <path id="Path_2370" data-name="Path 2370" d="M1933.623,1052.931h0a.155.155,0,0,0,.055-.212l-.083-.141a.155.155,0,0,0-.212-.054h0a.155.155,0,0,0-.055.212l.083.142A.156.156,0,0,0,1933.623,1052.931Z" transform="translate(-1923.274 -1046.058)" fill="#131f2d"/>
            <path id="Path_2371" data-name="Path 2371" d="M1935.332,1051.921h0a.155.155,0,0,0,.054-.212l-.083-.141a.155.155,0,0,0-.212-.054h0a.155.155,0,0,0-.055.212l.083.141A.156.156,0,0,0,1935.332,1051.921Z" transform="translate(-1924.294 -1045.455)" fill="#131f2d"/>
            <path id="Path_2372" data-name="Path 2372" d="M1937.039,1050.911h0a.156.156,0,0,0,.055-.212l-.084-.141a.155.155,0,0,0-.212-.054h0a.155.155,0,0,0-.055.212l.084.141A.156.156,0,0,0,1937.039,1050.911Z" transform="translate(-1925.313 -1044.852)" fill="#131f2d"/>
            <path id="Path_2373" data-name="Path 2373" d="M1938.747,1049.9h0a.156.156,0,0,0,.055-.212l-.084-.141a.155.155,0,0,0-.212-.054h0a.156.156,0,0,0-.054.212l.084.141A.155.155,0,0,0,1938.747,1049.9Z" transform="translate(-1926.333 -1044.25)" fill="#131f2d"/>
            <path id="Path_2374" data-name="Path 2374" d="M1940.421,1048.912h0a.156.156,0,0,0,.055-.212l-.083-.142a.155.155,0,0,0-.212-.054h0a.155.155,0,0,0-.055.212l.083.141A.156.156,0,0,0,1940.421,1048.912Z" transform="translate(-1927.332 -1043.659)" fill="#131f2d"/>
            <path id="Path_2375" data-name="Path 2375" d="M1942.129,1047.9h0a.155.155,0,0,0,.054-.213l-.083-.141a.156.156,0,0,0-.212-.055h0a.156.156,0,0,0-.055.213l.083.141A.156.156,0,0,0,1942.129,1047.9Z" transform="translate(-1928.352 -1043.056)" fill="#131f2d"/>
            <path id="Path_2376" data-name="Path 2376" d="M1943.837,1046.894h0a.155.155,0,0,0,.054-.212l-.083-.141a.155.155,0,0,0-.212-.055h0a.155.155,0,0,0-.054.212l.083.142A.156.156,0,0,0,1943.837,1046.894Z" transform="translate(-1929.372 -1042.454)" fill="#131f2d"/>
            <path id="Path_2377" data-name="Path 2377" d="M1957.361,1037.406a.239.239,0,0,0,.266.075.231.231,0,0,0,.067-.037l1.079-.854c-.136-.021-.36-.056-.669-.074l-.7.558A.238.238,0,0,0,1957.361,1037.406Z" transform="translate(-1937.603 -1036.515)" fill="#131f2d"/>
            <rect id="Rectangle_1272" data-name="Rectangle 1272" width="0.827" height="1.597" rx="0.413" transform="matrix(-0.861, 0.509, -0.509, -0.861, 2.892, 12.093)" fill="#131f2d"/>
            <rect id="Rectangle_1273" data-name="Rectangle 1273" width="0.827" height="1.597" rx="0.413" transform="translate(1.524 12.902) rotate(149.426)" fill="#131f2d"/>
          </g>
          <g id="Group_652" data-name="Group 652" transform="translate(7.531 13.651)">
            <path id="Path_2378" data-name="Path 2378" d="M1889.706,1078.89h0a.155.155,0,0,0,.054-.212l-.083-.141a.156.156,0,0,0-.213-.054h0a.155.155,0,0,0-.054.212l.083.141A.156.156,0,0,0,1889.706,1078.89Z" transform="translate(-1889.389 -1075.205)" fill="#131f2d"/>
            <path id="Path_2379" data-name="Path 2379" d="M1891.414,1077.881h0a.155.155,0,0,0,.054-.212l-.083-.141a.156.156,0,0,0-.213-.055h0a.156.156,0,0,0-.054.212l.083.141A.155.155,0,0,0,1891.414,1077.881Z" transform="translate(-1890.408 -1074.603)" fill="#131f2d"/>
            <path id="Path_2380" data-name="Path 2380" d="M1893.122,1076.871h0a.156.156,0,0,0,.055-.212l-.083-.142a.156.156,0,0,0-.212-.054h0a.155.155,0,0,0-.054.212l.083.141A.155.155,0,0,0,1893.122,1076.871Z" transform="translate(-1891.428 -1074)" fill="#131f2d"/>
            <path id="Path_2381" data-name="Path 2381" d="M1894.83,1075.862h0a.156.156,0,0,0,.054-.213l-.083-.141a.156.156,0,0,0-.212-.054h0a.155.155,0,0,0-.054.212l.083.141A.156.156,0,0,0,1894.83,1075.862Z" transform="translate(-1892.447 -1073.397)" fill="#131f2d"/>
            <path id="Path_2382" data-name="Path 2382" d="M1896.538,1074.852h0a.156.156,0,0,0,.055-.212l-.083-.142a.156.156,0,0,0-.213-.055h0a.156.156,0,0,0-.054.212l.083.141A.155.155,0,0,0,1896.538,1074.852Z" transform="translate(-1893.467 -1072.794)" fill="#131f2d"/>
            <path id="Path_2383" data-name="Path 2383" d="M1898.245,1073.843h0a.156.156,0,0,0,.055-.212l-.083-.142a.156.156,0,0,0-.213-.054h0a.155.155,0,0,0-.055.212l.084.141A.155.155,0,0,0,1898.245,1073.843Z" transform="translate(-1894.486 -1072.192)" fill="#131f2d"/>
            <path id="Path_2384" data-name="Path 2384" d="M1899.953,1072.833h0a.156.156,0,0,0,.055-.212l-.083-.141a.156.156,0,0,0-.213-.054h0a.155.155,0,0,0-.054.212l.083.141A.155.155,0,0,0,1899.953,1072.833Z" transform="translate(-1895.506 -1071.589)" fill="#131f2d"/>
            <path id="Path_2385" data-name="Path 2385" d="M1901.661,1071.823h0a.155.155,0,0,0,.055-.212l-.084-.142a.155.155,0,0,0-.212-.055h0a.156.156,0,0,0-.055.213l.083.142A.156.156,0,0,0,1901.661,1071.823Z" transform="translate(-1896.525 -1070.986)" fill="#131f2d"/>
            <path id="Path_2386" data-name="Path 2386" d="M1903.37,1070.813h0a.156.156,0,0,0,.054-.212l-.083-.141a.156.156,0,0,0-.213-.054h0a.156.156,0,0,0-.055.212l.084.141A.155.155,0,0,0,1903.37,1070.813Z" transform="translate(-1897.545 -1070.384)" fill="#131f2d"/>
          </g>
        </g>
        <path id="Path_2387" data-name="Path 2387" d="M1913.386,1073.109a.555.555,0,0,1-.578-.822,3.141,3.141,0,0,1,1.1-1.172c1.042-.6,1.351,1.306,1.012,1.52A6.027,6.027,0,0,1,1913.386,1073.109Z" transform="translate(-1877.826 -1056.992)" fill="url(#linear-gradient-5)"/>
        <path id="Path_2388" data-name="Path 2388" d="M1914.608,1065.911l1.281,2.167a11.629,11.629,0,0,0,3.015-1.231,9.292,9.292,0,0,0,2.046-1.485,3.141,3.141,0,0,0,.306-.343l-1.343-2.271a1.273,1.273,0,0,0-.473.06c-1.525.432-4.655,2.9-4.655,2.9Z" transform="translate(-1878.945 -1052.064)" fill="url(#linear-gradient-5)"/>
        <path id="Path_2389" data-name="Path 2389" d="M1926.595,1062.807l1.51,2.555a3.141,3.141,0,0,0,.306-.343l-1.343-2.271A1.274,1.274,0,0,0,1926.595,1062.807Z" transform="translate(-1886.1 -1052.064)" fill="url(#linear-gradient-5)"/>
        <path id="Path_2390" data-name="Path 2390" d="M1844.05,1096.813a21.4,21.4,0,0,0-6.894,2.738l3.042-.046,3.908-2.31S1844.363,1096.93,1844.05,1096.813Z" transform="translate(-1832.711 -1072.402)" fill="url(#linear-gradient-5)"/>
        <g id="Group_654" data-name="Group 654" transform="translate(20.371 12.913)">
          <path id="Path_2391" data-name="Path 2391" d="M1876.668,1070.971s2.738,1.884,3.214,2.14a2.649,2.649,0,0,0,1.24.185h0l4.709-.794s5.02-2.931,6.1-3.6h0c.1-.06.163-.1.19-.121.316-.229.421-.433.313-.5s-8.364,3.221-9.276,3.591l-.026.011c-.889.355-1.068.17-1.068.17l-4.552-1.25a.461.461,0,0,0-.244-.029A2.169,2.169,0,0,0,1876.668,1070.971Z" transform="translate(-1876.668 -1068.286)" fill="url(#linear-gradient-5)"/>
          <path id="Path_2392" data-name="Path 2392" d="M1878.17,1070.779c1.245.383,4.687,1.434,4.986,1.472.323.041,7.83-2.681,9.676-3.347h0c.1-.06.163-.1.19-.121.316-.229.422-.433.314-.5s-8.364,3.221-9.276,3.591-1.094.181-1.094.181l-4.552-1.25A.461.461,0,0,0,1878.17,1070.779Z" transform="translate(-1877.565 -1068.286)" fill="url(#linear-gradient-5)"/>
          <path id="Path_2393" data-name="Path 2393" d="M1876.668,1074.658s2.738,1.884,3.214,2.14a2.65,2.65,0,0,0,1.24.186h0a10.206,10.206,0,0,0,2.012-1.407c-.889.355-1.068.17-1.068.17l-4.552-1.25a.462.462,0,0,0-.244-.029A2.172,2.172,0,0,0,1876.668,1074.658Z" transform="translate(-1876.668 -1071.973)" fill="url(#linear-gradient-5)"/>
        </g>
        <path id="Path_2394" data-name="Path 2394" d="M1835.611,1088.073l11.81-7.389s-6.1,1.989-6.919,1.768c-.773-.208-9.251-3.039-11.256-2.783,2.278.92,7.62,3.2,7.99,4.462C1837.586,1085.333,1836.288,1087.2,1835.611,1088.073Z" transform="translate(-1827.989 -1062.158)" fill="url(#linear-gradient-5)"/>
      </g>
      <g id="Group_663" data-name="Group 663" transform="translate(0 222.357)">
        <g id="Group_656" data-name="Group 656" transform="translate(46.421 132.544)">
          <path id="Path_2395" data-name="Path 2395" d="M1628.331,1383.444a4.945,4.945,0,1,1-6.492-2.6A4.945,4.945,0,0,1,1628.331,1383.444Z" transform="translate(-1618.838 -1380.443)" fill="#dfe1ea"/>
          <path id="Path_2396" data-name="Path 2396" d="M1630.505,1383.444a4.945,4.945,0,1,1-6.491-2.6A4.945,4.945,0,0,1,1630.505,1383.444Z" transform="translate(-1620.136 -1380.443)" fill="#dfe1ea"/>
        </g>
        <g id="Group_657" data-name="Group 657" transform="translate(18.222 132.544)">
          <path id="Path_2397" data-name="Path 2397" d="M1558.369,1383.444a4.945,4.945,0,1,1-6.492-2.6A4.945,4.945,0,0,1,1558.369,1383.444Z" transform="translate(-1548.876 -1380.443)" fill="#dfe1ea"/>
          <path id="Path_2398" data-name="Path 2398" d="M1560.542,1383.444a4.945,4.945,0,1,1-6.492-2.6A4.945,4.945,0,0,1,1560.542,1383.444Z" transform="translate(-1550.174 -1380.443)" fill="#dfe1ea"/>
        </g>
        <g id="Group_658" data-name="Group 658" transform="translate(29.665)">
          <path id="Path_2399" data-name="Path 2399" d="M1607.4,1105.233l-2.089-.424c2.826-13.925,8.121-41.242,7.931-44.956-.12-2.341-.837-4.031-2.133-5.025a6.988,6.988,0,0,0-5.1-.971l-.115.019-8.515.895c-10.082.254-10.873,8.592-10.9,8.947l-.014.108-7.105,38.973-2.1-.383,7.1-38.925a12.662,12.662,0,0,1,1.924-5.295c1.579-2.443,4.77-5.386,11-5.557l8.337-.879a9.011,9.011,0,0,1,6.768,1.364c1.823,1.39,2.827,3.618,2.981,6.62C1615.624,1064.652,1607.738,1103.578,1607.4,1105.233Z" transform="translate(-1577.265 -1051.601)" fill="#dfe1ea"/>
        </g>
        <path id="Path_2400" data-name="Path 2400" d="M1594.589,1172.426l-21.532-4.3-4.211,84.45-39.836,3.522,7.032,2.526a6.356,6.356,0,0,0,2.218.374l37.935-.388q.987.01,1.9-.019h.063c14.842-.506,15.561-8.6,15.561-8.6s4.805-54.323,5.9-64C1600.868,1174.98,1594.589,1172.426,1594.589,1172.426Z" transform="translate(-1518.795 -1121.157)" fill="#dfe1ea"/>
        <path id="Path_2401" data-name="Path 2401" d="M1569.865,1182.9l-5.791,60.836a13.745,13.745,0,0,1-13.6,12.444l-19.97.124-.494,0-12.507.077a13.777,13.777,0,0,1-3.624-.458c-.271-.071-.536-.149-.8-.236a13.735,13.735,0,0,1-9.249-15.168l9.069-58.209a13.751,13.751,0,0,1,12.276-11.568l3.527-.338.841-.079h0l.707-.067,11.791-1.128,1.447-.137,11.378-1.087a13.741,13.741,0,0,1,5.121.47c.105.031.21.061.316.1l.658.225A13.751,13.751,0,0,1,1569.865,1182.9Z" transform="translate(-1503.667 -1120.996)" fill="#edeff6"/>
        <g id="Group_662" data-name="Group 662" transform="translate(5.534 47.391)">
          <g id="Group_659" data-name="Group 659" transform="translate(0 1.881)">
            <path id="Path_2402" data-name="Path 2402" d="M1538.452,1173.844c-.088.054-9.35,5.7-10.568,10.656-1.252,5.1-9.614,64.5-9.7,65.1a13.77,13.77,0,0,0,4.524,10.065l-.634-.152c-.271-.071-.536-.149-.8-.236a12.361,12.361,0,0,1-3.838-9.779c.344-2.453,8.454-60.039,9.712-65.172,1.1-4.5,7.634-8.979,9.75-10.331l.841-.079h0Z" transform="translate(-1517.396 -1173.844)" fill="#dfe1ea"/>
          </g>
          <g id="Group_660" data-name="Group 660" transform="translate(19.495 0.616)">
            <path id="Path_2403" data-name="Path 2403" d="M1580.561,1170.706a18.027,18.027,0,0,0-7.5,11.9c-1.273,8.37-6.244,69.163-6.294,69.774l0,.045-.013.041c-.01.031-.719,3.312,1.326,5.541l-.5,0-.494,0a6.505,6.505,0,0,1-1.063-5.735c.155-1.88,5.035-61.483,6.3-69.784a18.752,18.752,0,0,1,6.8-11.654Z" transform="translate(-1565.763 -1170.706)" fill="#dfe1ea"/>
          </g>
          <g id="Group_661" data-name="Group 661" transform="translate(37.996)">
            <path id="Path_2404" data-name="Path 2404" d="M1625.434,1169.5a15.632,15.632,0,0,0-3.621,2.991,17.174,17.174,0,0,0-4.08,8.867c-1.272,8.365-5.214,68.956-5.254,69.565l0,.048-.015.043c-.009.031-.183,3.738,1.863,5.967l-1.258.008c-1.564-2.037-1.467-5.72-1.336-6.158.126-1.937,3.995-61.284,5.257-69.587a17.184,17.184,0,0,1,7.473-12.066c.105.031.21.061.316.1Z" transform="translate(-1611.664 -1169.177)" fill="#dfe1ea"/>
          </g>
        </g>
      </g>
      <g id="Group_664" data-name="Group 664" transform="translate(49.183 211.531)">
        <path id="Path_2406" data-name="Path 2406" d="M1634.9,1026.9s-3.9-4.645-4.745-.307c-.1.512-4.3,6.156-4.461,9.237s3.784,4.568,5.124,4.636c1.074.055,1.341-1.635,1.556-2.369h0a3.352,3.352,0,0,1,2.889-2.475l.147-.015c.058-.206.1-.387.127-.532C1635.739,1033.929,1634.9,1026.9,1634.9,1026.9Z" transform="translate(-1625.689 -1024.742)" fill="#edeff6"/>
        <path id="Path_2407" data-name="Path 2407" d="M1642.422,1057.509a3.326,3.326,0,0,0-.216.932c-.027.7.983.662,1.316.644a4.931,4.931,0,0,0,.955-1.792Z" transform="translate(-1635.548 -1044.173)" fill="#edeff6"/>
      </g>
      <path id="Path_2408" data-name="Path 2408" d="M1637.622,921.743c2.948,1.351,4.042-.027,4.042-.027s17.17-28.67,18.978-30.976,33.5-15.907,33.5-15.907,12.9-4.931,13.409-12.755c.443-6.8-3.417-10.977-7.644-13.5a14.27,14.27,0,0,0-16.043,1.036c-10.4,8.074-31.008,24.316-34.325,28.721-7.382,9.8-15.565,40.529-15.565,40.529A10.209,10.209,0,0,0,1637.622,921.743Z" transform="translate(-1581.453 -706.868)" fill="#f2c335"/>
    </g>
  </g>
</svg>
