<svg id="home-desktop" xmlns="http://www.w3.org/2000/svg" width="82.304" height="69.642" viewBox="0 0 82.304 69.642">
  <g id="alibaba-footer" transform="translate(0 0)">
    <g id="footer">
      <g id="log-address">
        <g id="Group_187" data-name="Group 187" transform="translate(0 0)">
          <g id="Group-17" transform="translate(0 0)">
            <path id="Combined-Shape" d="M26.368,70.647a4.924,4.924,0,0,1-.2.55,3.539,3.539,0,0,1-1.9,2.184,3.757,3.757,0,0,1-.792.265l-1.22.309c-.075.015-.173.03-.294.044s-.188.007-.2-.022.06-.095.225-.2l.294-.177q.022-.022.836-.485,2.35-1.369,2.351-2.141a1.718,1.718,0,0,1-.611.088q-1.016-.154-1.017-.795a3.127,3.127,0,0,1,.5-1.368q.564-.97.994-.971A1.2,1.2,0,0,1,26.506,69.1a3.553,3.553,0,0,1,.023.454,1.04,1.04,0,0,0,.623-.316.6.6,0,0,0,.144-.155c.067-.089.115-.133.145-.133l.133.089a.273.273,0,0,0,.156.044.682.682,0,0,0,.6-.354c.1-.177.169-.266.2-.266.045.03.119.074.222.133q.4.089.778-.664a.494.494,0,0,1,.267.111,1.339,1.339,0,0,0,.289-.089,1.348,1.348,0,0,1,.111.421.914.914,0,0,1-.111.487,2.548,2.548,0,0,1-.712.51l-.689.332a4.164,4.164,0,0,0-.512.177l-.245.089-.4.2-.222.067A8.6,8.6,0,0,0,26.368,70.647Zm17.258-.4.032-.059q0,1.825,1.283,1.825a1.635,1.635,0,0,0,1.148-.462q.427-.483.854-.945a.5.5,0,0,0,.157-.132l.088-.1a4.634,4.634,0,0,1,.41-.825q.868-1.4,1.779-1.4l.222.022q.021.064.038.127a1.971,1.971,0,0,0,.363.11q.3,0,.648-.555.173-.277.259-.256c.115.029.122.17.022.427a3.142,3.142,0,0,1-.173.406q-.562,1.195-1.23,1.2v-.013a1.084,1.084,0,0,1-.283-.106,1.8,1.8,0,0,0-.311-.136.755.755,0,0,0-.567.192.641.641,0,0,0-.323.487l-.007,0a2.806,2.806,0,0,0,.37.59c.255.344.383.524.383.538a1.254,1.254,0,0,1-.35.67q-.348.429-.6.429a1.672,1.672,0,0,1-.484-.132,1.666,1.666,0,0,0-.53-.132.752.752,0,0,0-.584.285,6.172,6.172,0,0,0-.428.66,3.4,3.4,0,0,1-.4.593,1.606,1.606,0,0,1-1.17.682,1.3,1.3,0,0,1-1.215-.813,3.386,3.386,0,0,1-.315-1.516l.039-.071a.247.247,0,0,1-.039,0,38.444,38.444,0,0,1,.655-5.392,14.629,14.629,0,0,1,.9-2.127l.09-.044a1.042,1.042,0,0,1-.023.351l-.09.57-.384,2.674a16.978,16.978,0,0,0-.2,2.258ZM58.539,69.09a2.149,2.149,0,0,0,.473-.6q.448-.983.6-1.342.335-.716.894-.716a.857.857,0,0,1,.714.4q.424-.715.514-.715c.089,0,.192.089.312.268a.86.86,0,0,1,.179.425,1.665,1.665,0,0,1-.29.961,1,1,0,0,1-.849.492,1.19,1.19,0,0,1-.424-.112,1.2,1.2,0,0,0-.425-.112q-.335,0-.558.448-.559,1.1-.625,1.207a9.048,9.048,0,0,1-.752,1.048q-.054.153-.121.307a3.548,3.548,0,0,1-1.9,2.189,3.779,3.779,0,0,1-.795.265l-1.225.31c-.075.015-.174.03-.3.044s-.189.007-.2-.022.06-.1.226-.2l.295-.177q.022-.022.84-.486,2.359-1.371,2.359-2.145a1.727,1.727,0,0,1-.613.089q-1.02-.154-1.021-.8a3.129,3.129,0,0,1,.5-1.371q.566-.972,1-.973a1.2,1.2,0,0,1,1.179,1.172Q58.533,69.008,58.539,69.09Zm16.865.578v.339q0,1.428.922,1.427.2-.5.484-1.164a.774.774,0,0,1,.615.79,3.768,3.768,0,0,1-.351,1.582q-.483,1.032-1.3,1.032a1.078,1.078,0,0,1-.835-.45,1.689,1.689,0,0,1-.417-.923q-.044-.472-.044-.538v-.417l.034-.062-.034,0a38.157,38.157,0,0,1,.655-5.37,14.567,14.567,0,0,1,.9-2.118l.09-.043a1.035,1.035,0,0,1-.023.349l-.09.568-.384,2.663a16.851,16.851,0,0,0-.2,2.249ZM83.7,71.286H83.68a38.155,38.155,0,0,1,.655-5.37,14.566,14.566,0,0,1,.9-2.118l.09-.043a1.035,1.035,0,0,1-.023.349l-.09.568-.384,2.663a16.847,16.847,0,0,0-.2,2.249l-.019.064.014.014a4.731,4.731,0,0,0,.135,1.243,1.208,1.208,0,0,0,1.235.763,1.638,1.638,0,0,0,1.078-.393,3.12,3.12,0,0,1,.718-.523,1.188,1.188,0,0,1,.292-.022,2.636,2.636,0,0,0,.315.022.506.506,0,0,0,.292-.066,1.073,1.073,0,0,0,.4-.48c.03-.1.068-.211.112-.327a2.27,2.27,0,0,0,.315.022q.269,0,.516-.7c.075-.2.134-.3.179-.3s.089.065.089.2a2.751,2.751,0,0,1-.359,1.287q-.427.807-.988.807a4.662,4.662,0,0,1-.337.458.79.79,0,0,1-.54.327,2.867,2.867,0,0,0-.427-.043q-.381,0-1.145.959a1.708,1.708,0,0,1-1.347.785q-1.482,0-1.482-2.312ZM55.968,22.22a1.563,1.563,0,0,1,.11.259,16.753,16.753,0,0,1,2.254,11.8A15.41,15.41,0,0,1,51.775,44.5a17.157,17.157,0,0,1-11.569,2.96c-5.217-.4-9.88-3.673-12.722-7.977a30.645,30.645,0,0,0-6.269-7.467c-2.022-1.565-4.686-2.7-7.257-2.019A14.735,14.735,0,0,0,8,33.23c1.173-3.474,3.625-6.9,7.333-7.865,2.351-.734,4.808-.2,7.151.266a4.3,4.3,0,0,1,3.753-3.452,12.073,12.073,0,0,1,3.465-.165c-.816.7-1.835,1.263-2.212,2.335-.564,1.517.05,3.136.765,4.488.868,1.641,2,3.262,2.17,5.157.126,1.215-.74,2.159-1.463,3.012a6.859,6.859,0,0,0,3.522,3.276,22.556,22.556,0,0,0,6.3,1.537c3.884.079,8.037-.846,10.963-3.561A8.873,8.873,0,0,0,52.5,31.749c.206-4.53-3.147-8.5-7.093-10.3a18.062,18.062,0,0,0-7.738-1.529c-1.494.028-3.463-.625-4.482.851,0-.98-.112-2.173.815-2.8a6.5,6.5,0,0,1,3.876-.812c.017.507.542,1.044,1.053.759.494-.092.53-.6.514-1.011a23.161,23.161,0,0,0-2.413.157c.034-.221.1-.666.137-.887.9-1.683,2.954-2.173,4.722-2.173A15.331,15.331,0,0,1,53.8,19.262a28.888,28.888,0,0,1,1.992,2.69A.815.815,0,0,0,55.968,22.22Zm-7.689,2.588c1.81,1.24,2.36,3.57,2.826,5.6-6.945-.028-13.892.031-20.835-.028a5.906,5.906,0,0,1-1.03-1.573,9.336,9.336,0,0,1-.9-4.007C34.986,24.8,41.632,24.786,48.278,24.808Zm41.931-.084c-.131.249-.257.5-.377.759a7.323,7.323,0,0,1-3.468,2.979A25.735,25.735,0,0,1,77.9,30.349c-6.132.112-12.27,0-18.4.05a15.931,15.931,0,0,0-1.17-5.664C68.953,24.752,79.581,24.774,90.209,24.724Zm-6.451,6.608a12.1,12.1,0,0,1-4.445,3.808c-3.136,1.487-6.657,1.644-10.053,1.91-3.594.031-7.185,0-10.776.014a12.276,12.276,0,0,0,1.176-5.726Q71.711,31.362,83.759,31.332Zm-32.364.4a19.466,19.466,0,0,1-.765,3.222,6.309,6.309,0,0,1-1.561,2.125c-6.378,0-12.758-.028-19.137.012a10.441,10.441,0,0,0,1.287-1.523,4.34,4.34,0,0,0-.315-3.839Q41.149,31.75,51.395,31.732ZM82.06,70,81.794,71.1A7.89,7.89,0,0,1,81.22,72.5a2.226,2.226,0,0,1-1.084.981l-.8.335a2.67,2.67,0,0,1-1.04.223.119.119,0,0,1-.133-.089q-.066-.2.62-.736.221-.178.884-.692a5.451,5.451,0,0,0,1.416-1.65,12.794,12.794,0,0,0,.575-1.584l.265-.8q.221-.691.355-.691a.507.507,0,0,1,.11.223A9.442,9.442,0,0,1,82.06,70Zm.607-4.831q-.4.786-.754.786-.245-.2-.711-.562t-.466-.494l.044-.089q.133-.292.488-1.079.089-.179.445-.786l.088-.112a1.642,1.642,0,0,0,.311.225,2.553,2.553,0,0,1,.51.449,1.594,1.594,0,0,1,.31.607A1.854,1.854,0,0,1,82.666,65.173Zm-12.723,4.82a1.289,1.289,0,0,1-.272.768q-.541.747-.789.791a.553.553,0,0,1-.2-.11,4.067,4.067,0,0,1-.542-.4,1.815,1.815,0,0,0-.383-.22.5.5,0,0,1-.248-.307l.519-1.142q.248-.417.428-.68l.136-.2c.1.044.263.124.474.241a6.03,6.03,0,0,1,.541.439.927.927,0,0,1,.317.571A1.081,1.081,0,0,1,69.943,69.993Zm2.527,2.174a7.793,7.793,0,0,1-3.656,4.654,4.736,4.736,0,0,1-2.257.527,2.776,2.776,0,0,1-2.167-.845,3.188,3.188,0,0,1-.767-2.228A11.132,11.132,0,0,1,65.542,68.9q.226-.374.339-.352c.03.015.038.1.023.242q-.046.219-.091.373l-.744,1.581a4.77,4.77,0,0,0-.542,1.976q0,2.305,2.618,2.305a5.049,5.049,0,0,0,4.423-2.459,3.236,3.236,0,0,0,.541-1.778l.045-1.581a4.72,4.72,0,0,1,.384-1.559l.451-.856a1.989,1.989,0,0,1,.293-.461.32.32,0,0,1,.09.286l-.113.768-.112,1.1a10.991,10.991,0,0,1-.338,2.415Q72.606,71.772,72.471,72.167Zm-11.812,1.3a3.506,3.506,0,0,0-.677,1.7l.373.326q.352.326.351.478a1.009,1.009,0,0,1-.187.576.573.573,0,0,1-.491.272q-.56,0-.56-.848a6.259,6.259,0,0,1,.63-1.935q.653-1.522,1.027-1.457Q60.892,73.012,60.658,73.469Zm-7.1-7.81c.031-.059.1-.169.205-.33a.622.622,0,0,1,.114-.132.37.37,0,0,1,.068.176l-.114.748-.137,1.232-.25,1.957a6.524,6.524,0,0,1-.548,2l-.524,1.056q-.479.945-.753.946l-.069-.154a23.7,23.7,0,0,0,.889-3.827l.159-1.386.251-.682ZM50.343,80.018q-.486.679-.818.679-.022,0-.574-.526a4.033,4.033,0,0,1-.553-.57,6.669,6.669,0,0,1,.553-1.03q.485-.832.574-.833t.443.329a1.721,1.721,0,0,1,.662,1.074A1.454,1.454,0,0,1,50.343,80.018Zm-1.171,2.76q-.485.679-.818.679-.022,0-.574-.526a4.054,4.054,0,0,1-.552-.57,6.731,6.731,0,0,1,.552-1.029q.486-.833.574-.833c.059,0,.206.11.442.329a1.718,1.718,0,0,1,.663,1.073A1.451,1.451,0,0,1,49.172,82.778Zm-1.017-2.76q-.485.679-.817.679a7.485,7.485,0,0,1-.575-.526,4.085,4.085,0,0,1-.552-.57,6.753,6.753,0,0,1,.552-1.03q.486-.832.575-.833c.058,0,.206.11.441.329a1.719,1.719,0,0,1,.662,1.074A1.454,1.454,0,0,1,48.155,80.018Zm-3.333,2.738q-.409.757-.773.757-.25-.194-.727-.541c-.318-.23-.477-.389-.477-.475l.045-.087q.137-.281.5-1.039.091-.173.455-.757l.091-.108a1.7,1.7,0,0,0,.319.216,2.584,2.584,0,0,1,.522.432,1.5,1.5,0,0,1,.318.584A1.7,1.7,0,0,1,44.823,82.755Zm-2.342.13q-.409.757-.772.757-.252-.195-.728-.541t-.477-.475l.046-.087q.137-.281.5-1.038.091-.173.456-.757l.091-.108a1.713,1.713,0,0,0,.318.216,2.555,2.555,0,0,1,.522.433,1.5,1.5,0,0,1,.318.584A1.7,1.7,0,0,1,42.481,82.885Zm-3.152-13.8a5.06,5.06,0,0,0,.5-1.547,4,4,0,0,0-.431-1.149,2.369,2.369,0,0,1-.364-.729,19.438,19.438,0,0,1,.772-2.122q.476.132.795.972a3.483,3.483,0,0,1,.272,1.282A6.663,6.663,0,0,1,40.327,68q-.272.707-.885,2.166,0,.243.635.552a1.366,1.366,0,0,1,.59,1.215,7.221,7.221,0,0,1-.9,3.3,6.741,6.741,0,0,1-2.191,2.6,3.737,3.737,0,0,1-2.133.641,2.56,2.56,0,0,1-2.179-.995,3.7,3.7,0,0,1-.681-2.321,8.81,8.81,0,0,1,.818-3.271q.091-.2.544-1.216.046-.11.5-.994.544-1.083.658-1.061t.068.243a2.66,2.66,0,0,1-.136.464L33.949,71.8a5.207,5.207,0,0,0-.522,1.989q0,2.3,2.452,2.3a5.106,5.106,0,0,0,2.565-.685,2.365,2.365,0,0,0,1.43-2.033,4.882,4.882,0,0,0-.806-.53q-.806-.486-.805-.906a2.8,2.8,0,0,1,.295-1.149Q39.056,69.724,39.329,69.084Zm-.214,13.672q-.409.757-.773.757-.25-.194-.727-.541c-.318-.23-.477-.389-.477-.475l.046-.087q.137-.281.5-1.039.091-.173.455-.757l.091-.108a1.7,1.7,0,0,0,.319.216,2.577,2.577,0,0,1,.522.432,1.5,1.5,0,0,1,.318.584A1.706,1.706,0,0,1,39.115,82.755Zm-2.342.13q-.409.757-.772.757-.251-.195-.728-.541t-.477-.475l.045-.087q.137-.281.5-1.038.091-.173.456-.757l.091-.108a1.711,1.711,0,0,0,.318.216,2.557,2.557,0,0,1,.522.433,1.5,1.5,0,0,1,.318.584A1.7,1.7,0,0,1,36.773,82.885ZM30.2,67.768a1.114,1.114,0,0,0,.275-.263,2.782,2.782,0,0,0,.481-1.82l-.023-1.469a4.155,4.155,0,0,1,.137-1.469L31.9,60.8a.979.979,0,0,1,.114-.044.443.443,0,0,1,.023.176q0,.373-.046,1.03-.045.768-.046,1.053a24.6,24.6,0,0,1-.16,2.477,5.131,5.131,0,0,1-1.009,2.588q-.092.11-.573.592Zm4.691-10.4,2.883-2.276q.833-.663,1.982-1.7.315-.286,1.779-1.679,1.554-1.48,1.69-1.635a.428.428,0,0,1-.046.2,8.224,8.224,0,0,1-2.454,3.447q-.992.973-3,2.607-.09.067-3.333,2.563l-1.554,1.193q-.947.729-.991.663a4.613,4.613,0,0,1,.945-1.591A26.48,26.48,0,0,1,34.889,57.366Zm-5.341,4.513q-.407.766-.77.766-.249-.2-.724-.547c-.317-.233-.476-.394-.476-.481l.045-.088q.136-.284.5-1.052.091-.175.453-.766l.09-.109a1.692,1.692,0,0,0,.318.219,2.579,2.579,0,0,1,.521.438,1.53,1.53,0,0,1,.317.591A1.749,1.749,0,0,1,29.548,61.879ZM28.37,59.163c-.271.511-.529.767-.77.767a4.118,4.118,0,0,1-.725-.526q-.475-.372-.475-.5l.045-.088q.135-.284.5-1.052.091-.175.452-.766l.091-.11a1.7,1.7,0,0,0,.318.219,2.566,2.566,0,0,1,.521.438,1.523,1.523,0,0,1,.317.591A1.753,1.753,0,0,1,28.37,59.163ZM27.215,62.01q-.407.766-.769.766-.251-.2-.725-.547t-.476-.481l.045-.088q.136-.284.5-1.051.091-.175.454-.766l.09-.11a1.7,1.7,0,0,0,.317.219,2.558,2.558,0,0,1,.521.438,1.521,1.521,0,0,1,.317.591A1.74,1.74,0,0,1,27.215,62.01Zm-6.154,7.95-.265,1.1a7.933,7.933,0,0,1-.573,1.408,2.225,2.225,0,0,1-1.081.983l-.795.336a2.651,2.651,0,0,1-1.037.223.118.118,0,0,1-.132-.089q-.066-.2.618-.738.22-.179.882-.693a5.453,5.453,0,0,0,1.412-1.654,12.858,12.858,0,0,0,.573-1.587l.265-.8q.22-.692.354-.693a.51.51,0,0,1,.11.223A9.508,9.508,0,0,1,21.061,69.96ZM18.213,66.3q-.225.462-.269.529-.179.265-.313.265a.878.878,0,0,0-.314-.177,2.775,2.775,0,0,0-1.634.882q-1.21,1.08-1.21,1.521a.618.618,0,0,0,.157.375l.4.2a1.125,1.125,0,0,1,.874,1.212,7.944,7.944,0,0,1-.4,2.347,8.626,8.626,0,0,1-.986,2.171,4.468,4.468,0,0,1-3.83,2.248,2.5,2.5,0,0,1-1.983-.8A3.047,3.047,0,0,1,8,74.985a9.638,9.638,0,0,1,1.053-4.078l1.164-2.469q.246-.529.359-.529c.1,0,.157.066.157.2a.547.547,0,0,1-.044.242q-1.859,3.99-1.86,5.268A1.663,1.663,0,0,0,9.59,75.1a2.932,2.932,0,0,0,1.679.441,3.917,3.917,0,0,0,2.98-1.234,2.694,2.694,0,0,0,.918-1.653q0-.242-.761-.441A1.153,1.153,0,0,1,13.4,71.04a6.072,6.072,0,0,1,1.612-3.549,12.983,12.983,0,0,1,1.143-1.256A5.02,5.02,0,0,1,18.459,64.8c.134.088.194.184.179.287A4.918,4.918,0,0,1,18.213,66.3Z" transform="translate(-8 -14)" fill="#233f9f" fill-rule="evenodd"/>
          </g>
        </g>
      </g>
    </g>
  </g>
</svg>
