<svg xmlns="http://www.w3.org/2000/svg" xmlns:xlink="http://www.w3.org/1999/xlink" width="370.446" height="273.709" viewBox="0 0 370.446 273.709">
  <defs>
    <linearGradient id="linear-gradient" x1="0.5" x2="0.5" y2="1" gradientUnits="objectBoundingBox">
      <stop offset="0" stop-color="#fff"/>
      <stop offset="1" stop-color="#f5f6fa"/>
    </linearGradient>
    <filter id="Rectangle_67" x="76.835" y="41.284" width="234.594" height="232.425" filterUnits="userSpaceOnUse">
      <feOffset dy="10" input="SourceAlpha"/>
      <feGaussianBlur stdDeviation="25" result="blur"/>
      <feFlood flood-color="#dfe1e8"/>
      <feComposite operator="in" in2="blur"/>
      <feComposite in="SourceGraphic"/>
    </filter>
    <linearGradient id="linear-gradient-2" x2="1" y2="1" gradientUnits="objectBoundingBox">
      <stop offset="0" stop-color="#23bcba"/>
      <stop offset="1" stop-color="#45e994"/>
    </linearGradient>
  </defs>
  <g id="Group_2" data-name="Group 2" transform="translate(-1211.19 -2605)">
    <ellipse id="Ellipse_11" data-name="Ellipse 11" cx="93.812" cy="93.812" rx="93.812" ry="93.812" transform="translate(1392 2634)" fill="#edeff6"/>
    <circle id="Ellipse_12" data-name="Ellipse 12" cx="70.144" cy="70.144" r="70.144" transform="translate(1581.636 2702.144) rotate(120)" fill="url(#linear-gradient)"/>
    <path id="Rectangle_62" data-name="Rectangle 62" d="M30,0H203.175a30,30,0,0,1,30,30V242.936a0,0,0,0,1,0,0H0a0,0,0,0,1,0,0V30A30,30,0,0,1,30,0Z" transform="translate(1242.641 2605)" fill="#fff"/>
    <path id="Rectangle_63" data-name="Rectangle 63" d="M25,0H192.992a25,25,0,0,1,25,25V235.345a0,0,0,0,1,0,0H0a0,0,0,0,1,0,0V25A25,25,0,0,1,25,0Z" transform="translate(1250.233 2612.592)" fill="#f5f6fa"/>
    <rect id="Rectangle_64" data-name="Rectangle 64" width="344.883" height="10.845" transform="translate(1211.19 2841.429)" fill="#fff"/>
    <rect id="Rectangle_65" data-name="Rectangle 65" width="62.903" height="6.507" transform="translate(1384.716 2664.649)" fill="#edeff6"/>
    <rect id="Rectangle_66" data-name="Rectangle 66" width="99.777" height="10.845" transform="translate(1347.841 2679.833)" fill="#6075a1"/>
    <g transform="matrix(1, 0, 0, 1, 1211.19, 2605)" filter="url(#Rectangle_67)">
      <rect id="Rectangle_67-2" data-name="Rectangle 67" width="84.594" height="82.425" rx="10" transform="translate(151.84 106.28)" fill="#fff"/>
    </g>
    <ellipse id="Ellipse_13" data-name="Ellipse 13" cx="10.303" cy="10.303" rx="10.303" ry="10.303" transform="translate(1412.914 2725.384)" opacity="0.2" fill="url(#linear-gradient-2)"/>
    <ellipse id="Ellipse_15" data-name="Ellipse 15" cx="10.303" cy="10.303" rx="10.303" ry="10.303" transform="translate(1319.643 2725.384)" fill="#fff3d0"/>
    <ellipse id="Ellipse_14" data-name="Ellipse 14" cx="5.965" cy="5.965" rx="5.965" ry="5.965" transform="translate(1417.252 2729.722)" fill="url(#linear-gradient-2)"/>
    <ellipse id="Ellipse_16" data-name="Ellipse 16" cx="5.965" cy="5.965" rx="5.965" ry="5.965" transform="translate(1323.982 2729.722)" fill="#ffce3a"/>
    <rect id="Rectangle_69" data-name="Rectangle 69" width="50.973" height="7.592" transform="translate(1382.547 2757.92)" fill="#edeff6"/>
    <rect id="Rectangle_72" data-name="Rectangle 72" width="50.973" height="7.592" transform="translate(1289.276 2757.92)" fill="#edeff6"/>
    <rect id="Rectangle_70" data-name="Rectangle 70" width="42.297" height="3.254" transform="translate(1391.223 2772.019)" fill="#edeff6"/>
    <rect id="Rectangle_73" data-name="Rectangle 73" width="42.297" height="3.254" transform="translate(1297.953 2772.019)" fill="#edeff6"/>
    <g id="Status_Bar" data-name="Status Bar" transform="translate(1401.526 2633.687)">
      <g id="Battery" transform="translate(29.271 0.002)">
        <g id="Border" fill="#66779c" stroke="#000" stroke-miterlimit="10" stroke-width="1" opacity="0.35">
          <rect width="15.212" height="7.836" rx="2.667" stroke="none"/>
          <rect x="0.5" y="0.5" width="14.212" height="6.836" rx="2.167" fill="none"/>
        </g>
        <path id="Cap" d="M0,0V2.766A1.5,1.5,0,0,0,.918,1.383,1.5,1.5,0,0,0,0,0" transform="translate(15.903 2.535)" fill="#66779c" opacity="0.4"/>
        <rect id="Capacity" width="12.446" height="5.071" rx="1.333" transform="translate(1.383 1.383)" fill="#66779c"/>
      </g>
      <path id="Wifi" d="M5.3,7.606a.217.217,0,0,1-.154-.064l-1.387-1.4a.214.214,0,0,1-.065-.16.218.218,0,0,1,.072-.157,2.376,2.376,0,0,1,3.068,0,.217.217,0,0,1,.006.317l-1.386,1.4A.217.217,0,0,1,5.3,7.606ZM7.737,5.152a.217.217,0,0,1-.149-.059,3.408,3.408,0,0,0-4.572,0,.217.217,0,0,1-.149.059.213.213,0,0,1-.152-.063l-.8-.81a.222.222,0,0,1,0-.318,4.973,4.973,0,0,1,6.77,0,.223.223,0,0,1,.068.159.221.221,0,0,1-.065.159l-.8.81A.213.213,0,0,1,7.737,5.152ZM9.583,3.29a.211.211,0,0,1-.149-.061,6,6,0,0,0-8.266,0,.213.213,0,0,1-.3,0l-.8-.809a.223.223,0,0,1,0-.316,7.57,7.57,0,0,1,10.469,0,.223.223,0,0,1,0,.316l-.8.809A.212.212,0,0,1,9.583,3.29Z" transform="translate(15.212 0)" fill="#66779c"/>
      <path id="Cellular_Connection" data-name="Cellular Connection" d="M11.063,7.376h-.691a.692.692,0,0,1-.691-.691V.691A.692.692,0,0,1,10.372,0h.691a.692.692,0,0,1,.691.691V6.684A.692.692,0,0,1,11.063,7.376Zm-3.227,0H7.145a.692.692,0,0,1-.691-.691V2.305a.692.692,0,0,1,.691-.691h.692a.692.692,0,0,1,.691.691V6.684A.692.692,0,0,1,7.837,7.376Zm-3.227,0H3.918a.692.692,0,0,1-.691-.691V3.918a.692.692,0,0,1,.691-.691h.691a.692.692,0,0,1,.692.691V6.684A.692.692,0,0,1,4.609,7.376Zm-3.227,0H.691A.692.692,0,0,1,0,6.684V5.3a.692.692,0,0,1,.691-.692h.691a.692.692,0,0,1,.691.692V6.684A.692.692,0,0,1,1.383,7.376Z" transform="translate(0 0.232)" fill="#66779c"/>
    </g>
    <text id="_9:41" data-name="9:41" transform="translate(1282.501 2638.944)" fill="#66779c" font-size="10" font-family="SegoeUI-Bold, Segoe UI" font-weight="700" letter-spacing="-0.015em"><tspan x="0" y="0">9:41</tspan></text>
  </g>
</svg>
