<svg xmlns="http://www.w3.org/2000/svg" xmlns:xlink="http://www.w3.org/1999/xlink" width="953" height="392" viewBox="0 0 953 392">
  <defs>
    <clipPath id="clip-path">
      <rect id="Rectangle_416" data-name="Rectangle 416" width="953" height="392" rx="30" transform="translate(0 0.342)" fill="#66779c"/>
    </clipPath>
  </defs>
  <g id="Mask_Group_1" data-name="Mask Group 1" transform="translate(0 -0.342)" clip-path="url(#clip-path)">
    <path id="Rectangle_415" data-name="Rectangle 415" d="M30,0H357.778a30,30,0,0,1,30,30V404.011a0,0,0,0,1,0,0H0a0,0,0,0,1,0,0V30A30,30,0,0,1,30,0Z" transform="matrix(0.985, -0.174, 0.174, 0.985, 97.092, 67.011)" fill="#09bab5"/>
    <g id="Ellipse_67" data-name="Ellipse 67" transform="translate(572 224.342)" fill="none" stroke="#09bab5" stroke-width="3">
      <ellipse cx="121" cy="120.5" rx="121" ry="120.5" stroke="none"/>
      <ellipse cx="121" cy="120.5" rx="119.5" ry="119" fill="none"/>
    </g>
    <g id="Ellipse_70" data-name="Ellipse 70" transform="translate(595 246.342)" fill="none" stroke="#09bab5" stroke-width="3">
      <ellipse cx="98" cy="98.5" rx="98" ry="98.5" stroke="none"/>
      <ellipse cx="98" cy="98.5" rx="96.5" ry="97" fill="none"/>
    </g>
  </g>
</svg>
