<svg id="e3JbknvVf0R1" xmlns="http://www.w3.org/2000/svg" xmlns:xlink="http://www.w3.org/1999/xlink" viewBox="0 0 25.013 26.001" shape-rendering="geometricPrecision" text-rendering="geometricPrecision"><defs><linearGradient id="e3JbknvVf0R2-fill" x1="0.5" y1="0" x2="0.5" y2="1" spreadMethod="pad" gradientUnits="objectBoundingBox" gradientTransform="translate(0 0)"><stop id="e3JbknvVf0R2-fill-0" offset="0%" stop-color="#98d700"/><stop id="e3JbknvVf0R2-fill-1" offset="100%" stop-color="#009a53"/></linearGradient></defs><path d="M13.05,0c1.222974.032815,2.363335.624741,3.094,1.606.680911.916551,1.220263,1.930196,1.6,3.007l.04.1c.113.279.22.542.331.8.21.487.409.95.6,1.4l.132.011c.946.084,1.763.186,2.47.3.56.09,1.05.188,1.479.29.908333.165998,1.777402.501143,2.562.988v0c.137183.099383.208642.266121.186.434l-.181,1.37c-.278091,2.778545-.859899,5.518238-1.735,8.17-.144.385-.3.764-.468,1.134-1.846064,3.873638-5.741586,6.353417-10.032499,6.386404s-8.2241-2.386606-10.129501-6.231404q-.328-.7-.59-1.43c-.43744-1.236408-.779769-2.504432-1.024-3.793-.325-1.666-.525-3.289-.714-4.672l-.124-.924c-.022737-.168458.048664-.33583.186-.436h.006c.784212-.488655,1.653309-.825507,2.562-.993.428-.1.916-.2,1.475-.288q1.231-.194,2.474-.3c.043-.005.087-.008.131-.012.192-.453.39-.916.6-1.4.112-.26.219-.523.332-.8l.04-.1c.379585-1.076251.918957-2.089259,1.6-3.005.73049-.984376,1.872643-1.578679,3.098-1.612Zm0,2.23c-.544907.049201-1.041389.333218-1.36.778-.182176.2283-.345386.471108-.488.726-.314091.586659-.589349,1.193295-.824,1.816-.113.277-.23.565-.352.848l-.158.368q1.59-.061,3.182-.06c1.163,0,2.22.022,3.181.06L16.074,6.4q-.181-.422-.352-.848c-.23434-.622838-.508919-1.229784-.822-1.817-.142297-.255402-.305523-.498568-.488-.727-.319248-.444077-.815379-.727892-1.36-.778Z" transform="translate(-.542 0)" fill="url(#e3JbknvVf0R2-fill)"/></svg>
