<svg xmlns="http://www.w3.org/2000/svg" xmlns:xlink="http://www.w3.org/1999/xlink" width="25.013" height="26.001" viewBox="0 0 25.013 26.001">
  <defs>
    <linearGradient id="linear-gradient" x1="0.5" x2="0.5" y2="1" gradientUnits="objectBoundingBox">
      <stop offset="0" stop-color="#98d700"/>
      <stop offset="1" stop-color="#009a53"/>
    </linearGradient>
  </defs>
  <path id="logo-store-bazar.svg-cb09f55a" d="M13.05,0a3.991,3.991,0,0,1,3.094,1.606,11.4,11.4,0,0,1,1.6,3.007l.04.1c.113.279.22.542.331.8.21.487.409.95.6,1.4l.132.011c.946.084,1.763.186,2.47.3.56.09,1.05.188,1.479.29a7.373,7.373,0,0,1,2.562.988l0,0a.46.46,0,0,1,.186.434l-.181,1.37a38.214,38.214,0,0,1-1.735,8.17c-.144.385-.3.764-.468,1.134a11.209,11.209,0,0,1-20.162.155q-.328-.7-.59-1.43a25.747,25.747,0,0,1-1.024-3.793C1.059,12.876.859,11.253.67,9.87L.546,8.946A.463.463,0,0,1,.732,8.51l.006,0A7.371,7.371,0,0,1,3.3,7.517c.428-.1.916-.2,1.475-.288q1.231-.194,2.474-.3c.043-.005.087-.008.131-.012.192-.453.39-.916.6-1.4.112-.26.219-.523.332-.8l.04-.1a11.376,11.376,0,0,1,1.6-3.005A3.993,3.993,0,0,1,13.05,0Zm0,2.23a1.881,1.881,0,0,0-1.36.778,5.36,5.36,0,0,0-.488.726,15.212,15.212,0,0,0-.824,1.816c-.113.277-.23.565-.352.848l-.158.368q1.59-.061,3.182-.06c1.163,0,2.22.022,3.181.06L16.074,6.4q-.181-.422-.352-.848A15.356,15.356,0,0,0,14.9,3.735a5.29,5.29,0,0,0-.488-.727,1.888,1.888,0,0,0-1.36-.778Z" transform="translate(-0.542)" fill="url(#linear-gradient)"/>
</svg>
