<svg xmlns="http://www.w3.org/2000/svg" width="30.17" height="30.17" viewBox="0 0 30.17 30.17">
  <path id="Path_1648" data-name="Path 1648" d="M23.119,29.153V5.017H5.017V27.645a1.509,1.509,0,0,0,1.509,1.509Zm4.526,3.017H6.526A4.526,4.526,0,0,1,2,27.645V3.509A1.509,1.509,0,0,1,3.509,2H24.628a1.509,1.509,0,0,1,1.509,1.509v10.56H32.17V27.645A4.526,4.526,0,0,1,27.645,32.17ZM26.136,17.085v10.56a1.509,1.509,0,1,0,3.017,0V17.085ZM8.034,8.034h9.051v9.051H8.034Zm3.017,3.017v3.017h3.017V11.051ZM8.034,18.594H20.1v3.017H8.034Zm0,4.526H20.1v3.017H8.034Z" transform="translate(-2 -2)" fill="#496193"/>
</svg>
