<svg xmlns="http://www.w3.org/2000/svg" width="48.019" height="39.291" viewBox="0 0 48.019 39.291">
  <path id="Path_1551" data-name="Path 1551" d="M40.076,18.28a6.546,6.546,0,0,0,8.895,2.429,7.64,7.64,0,0,1-4.311,7.749l0,13.832h-13.1V37.925a6.548,6.548,0,0,0-13.086-.384l-.011.384v4.366H5.367V28.46A7.64,7.64,0,0,1,1.047,20.7a6.546,6.546,0,0,0,8.9-2.425H40.076ZM36,3a7.64,7.64,0,0,0,9.7,6.243,7.64,7.64,0,0,1-7.181,6.843l-.419.011H11.915a7.64,7.64,0,0,1-7.6-6.855A7.64,7.64,0,0,0,14.019,3Z" transform="translate(-0.999 -3)" fill="#496193"/>
</svg>
