<svg xmlns="http://www.w3.org/2000/svg" width="51.104" height="40" viewBox="0 0 51.104 40">
  <g id="__x0023_Layer_x0020_3" transform="translate(-1786.851 -3572)">
    <path id="Path_1596" data-name="Path 1596" d="M1789.519,3597.705c5.042,11.151,19.668,4.513,21.535,3.963a4.911,4.911,0,0,1,.851-.146c.052,0,.778-4.678-2.562-6-7.821-2.448-18.651-13.361-2-23.527-11.349.944-15.218,10.073-12.427,16.919,1.877,4.637,6.95,8.237,10.985,9.336.27.155.135.747-.166.695-2.178.01-8.413-2.8-12.168-9.979a11.142,11.142,0,0,1-.187-8.319c-.093-.062-3.755,2.2-3.517,7.469.394,7.49,7.583,10.643,8.444,11.888.073.093-.042.353-.322.207a11.884,11.884,0,0,1-4.637-3.112c-5-5.571-4.481-7.21-4.678-7.2A13.629,13.629,0,0,0,1789.519,3597.705Zm40.54,8.04c-4.378,5.591-10.83,5.768-15.529,6.172a25.176,25.176,0,0,1-12.967-2.137c-1.8-.789-3.361-2.345-5.384-2.635-6.183-.508-5.145-1.286-9.326-3.579-.042-.021.757-.239,2.075-.685,4.378-1.452,6.431,2.064,8.465,2.334,4.014.913,13.807-2.9,16.037-2.656.052-.01-.156-5.383,3.257-6.732,7.894-2.687,19.336-11.4,4.761-23.828,9.025,1.183,12.043,7.9,11.421,12.832-.726,5.778-4.2,10.705-12.168,13.879-.177.239.135.529.321.5,3.33-.913,8.278-2.313,11.556-8.641,2.458-4.751,1.369-9.72,1.6-9.263a10.357,10.357,0,0,1,2.458,9.025c-.934,3.361-2.884,5.28-5.975,8.06-5.9,4.3-10.809,4.678-11.681,5.4-.166.135.176.674.321.654,4.357-.094,9.979-3.589,12.521-5.426,4.243-3.07,5.747-7.655,6.027-7.666a11.475,11.475,0,0,1-2.656,8.932c-6.245,7.2-14.678,7.157-18.164,8.039-.456.114-.488.871-.042.944C1820.577,3608.607,1824.042,3608.577,1830.058,3605.745Z" transform="translate(0 0)" fill="#074788" fill-rule="evenodd"/>
  </g>
</svg>
