<svg xmlns="http://www.w3.org/2000/svg" width="29" height="28.999" viewBox="0 0 29 28.999">
  <path id="Path_1649" data-name="Path 1649" d="M27.364,10.227A2.636,2.636,0,0,1,30,12.863v5.273a2.636,2.636,0,0,1-2.636,2.636h-1.4A10.547,10.547,0,0,1,15.5,30V27.363a7.909,7.909,0,0,0,7.909-7.909V11.545a7.909,7.909,0,1,0-15.818,0v9.227H3.636A2.636,2.636,0,0,1,1,18.136V12.863a2.636,2.636,0,0,1,2.636-2.636h1.4a10.547,10.547,0,0,1,20.927,0ZM9.911,20.489l1.4-2.236a7.917,7.917,0,0,0,8.384,0l1.4,2.236a10.553,10.553,0,0,1-11.178,0Z" transform="translate(-1 -1.001)" fill="#496193"/>
</svg>
