<svg xmlns="http://www.w3.org/2000/svg" width="26.506" height="25.181" viewBox="0 0 26.506 25.181">
  <path id="Path_1627" data-name="Path 1627" d="M21.879,25.53H8.626v1.325A1.325,1.325,0,0,1,7.3,28.181H5.976a1.325,1.325,0,0,1-1.325-1.325V25.53H3.325v-10.6H2v-5.3H3.325V5.651A2.651,2.651,0,0,1,5.976,3H24.53a2.651,2.651,0,0,1,2.651,2.651V9.626h1.325v5.3H27.181v10.6H25.855v1.325a1.325,1.325,0,0,1-1.325,1.325H23.2a1.325,1.325,0,0,1-1.325-1.325ZM5.976,5.651V17.578H24.53V5.651Zm0,14.578v2.651h5.3V20.229Zm13.253,0v2.651h5.3V20.229Z" transform="translate(-2 -3)" fill="#496193"/>
</svg>
