<svg xmlns="http://www.w3.org/2000/svg" width="35.599" height="35.599" viewBox="0 0 35.599 35.599">
  <path id="Path_1546" data-name="Path 1546" d="M19.8,14.46a5.34,5.34,0,1,0,5.34,5.34A5.34,5.34,0,0,0,19.8,14.46Zm0-3.56a8.9,8.9,0,1,1-8.9,8.9A8.9,8.9,0,0,1,19.8,10.9Zm11.57-.445A2.225,2.225,0,1,1,29.144,8.23,2.225,2.225,0,0,1,31.369,10.455ZM19.8,5.56c-4.4,0-5.123.012-7.171.1a9.67,9.67,0,0,0-3.2.591A5.138,5.138,0,0,0,7.505,7.505,5.144,5.144,0,0,0,6.252,9.428a9.656,9.656,0,0,0-.589,3.2c-.093,1.965-.1,2.652-.1,7.171,0,4.4.012,5.123.1,7.171a9.709,9.709,0,0,0,.589,3.2,5.534,5.534,0,0,0,3.172,3.174,9.69,9.69,0,0,0,3.2.593c1.965.093,2.652.1,7.171.1,4.4,0,5.123-.012,7.171-.1a9.728,9.728,0,0,0,3.2-.589,5.2,5.2,0,0,0,1.922-1.25,5.146,5.146,0,0,0,1.253-1.922,9.731,9.731,0,0,0,.591-3.2c.093-1.965.1-2.652.1-7.171,0-4.4-.012-5.123-.1-7.171a9.688,9.688,0,0,0-.591-3.2,5.181,5.181,0,0,0-1.251-1.922,5.133,5.133,0,0,0-1.922-1.253,9.666,9.666,0,0,0-3.2-.589C25.006,5.571,24.319,5.56,19.8,5.56ZM19.8,2c4.836,0,5.44.018,7.337.107a13.113,13.113,0,0,1,4.322.828,8.678,8.678,0,0,1,3.154,2.052,8.736,8.736,0,0,1,2.052,3.154,13.149,13.149,0,0,1,.828,4.322c.084,1.9.107,2.5.107,7.337s-.018,5.44-.107,7.337a13.159,13.159,0,0,1-.828,4.322,9.088,9.088,0,0,1-5.206,5.206,13.149,13.149,0,0,1-4.322.828c-1.9.084-2.5.107-7.337.107s-5.44-.018-7.337-.107a13.159,13.159,0,0,1-4.322-.828,9.088,9.088,0,0,1-5.206-5.206,13.1,13.1,0,0,1-.828-4.322C2.023,25.239,2,24.636,2,19.8s.018-5.44.107-7.337a13.1,13.1,0,0,1,.828-4.322A8.686,8.686,0,0,1,4.987,4.987,8.716,8.716,0,0,1,8.141,2.934a13.1,13.1,0,0,1,4.322-.828C14.36,2.023,14.963,2,19.8,2Z" transform="translate(-2 -2)" fill="#96a5c6"/>
</svg>
