<svg xmlns="http://www.w3.org/2000/svg" width="25.934" height="25.934" viewBox="0 0 25.934 25.934">
  <g id="logo-store-myket.svg-99dcd02e" transform="translate(-0.039 -0.031)">
    <circle id="Ellipse_76" data-name="Ellipse 76" cx="12.967" cy="12.967" r="12.967" transform="translate(0.039 0.031)" fill="#00b0ff"/>
    <path id="Path_1657" data-name="Path 1657" d="M9.48,18.313c.05-.093.218.084.218.084a4.8,4.8,0,0,0,3.341,1.14A4.779,4.779,0,0,0,16.38,18.4s.17-.168.22-.084c.067.1-.026.262-.034.262a4.069,4.069,0,0,1-3.527,1.712,4.065,4.065,0,0,1-3.526-1.712s-.1-.16-.034-.262ZM16.354,7.06a4.607,4.607,0,0,1,4.607,4.4.151.151,0,0,0,.05.119v5.146a1.14,1.14,0,0,1-1.139,1.139h-.025a1.14,1.14,0,0,1-1.14-1.139V11.683a2.3,2.3,0,0,0-4.6-.017v4.26a1.152,1.152,0,0,1-1.156,1.156h-.025a1.152,1.152,0,0,1-1.156-1.156V11.674a2.3,2.3,0,0,0-4.6,0H7.166v5.037a1.152,1.152,0,0,1-1.155,1.156H5.985A1.152,1.152,0,0,1,4.83,16.711v-5.2a1.26,1.26,0,0,1,.008-.178A4.613,4.613,0,0,1,12.9,8.62a4.616,4.616,0,0,1,3.46-1.56Z" fill="#fff"/>
  </g>
</svg>
