<svg xmlns="http://www.w3.org/2000/svg" width="23.759" height="23.759" viewBox="0 0 23.759 23.759">
  <path id="Path_2" data-name="Path 2" d="M22.2,25.759H5.564A3.564,3.564,0,0,1,2,22.2V3.188A1.188,1.188,0,0,1,3.188,2H19.819a1.188,1.188,0,0,1,1.188,1.188V17.443h4.752V22.2A3.564,3.564,0,0,1,22.2,25.759Zm-1.188-5.94V22.2a1.188,1.188,0,0,0,2.376,0V19.819Zm-2.376,3.564V4.376H4.376V22.2a1.188,1.188,0,0,0,1.188,1.188ZM6.752,7.94h9.5v2.376h-9.5Zm0,4.752h9.5v2.376h-9.5Zm0,4.752h5.94v2.376H6.752Z" transform="translate(-2 -2)" fill="#496193"/>
</svg>
