<svg xmlns="http://www.w3.org/2000/svg" width="21.517" height="25.103" viewBox="0 0 21.517 25.103">
  <path id="Path_1701" data-name="Path 1701" d="M20.931,27.1H18.54v-1.2H8.977v1.2H6.586v-1.2h-1.2A2.39,2.39,0,0,1,3,23.517V7.977A2.39,2.39,0,0,1,5.391,5.586H8.977V3.2a1.2,1.2,0,0,1,1.2-1.2h7.172a1.2,1.2,0,0,1,1.2,1.2V5.586h3.586a2.39,2.39,0,0,1,2.391,2.391v15.54a2.39,2.39,0,0,1-2.391,2.391h-1.2ZM11.368,10.368H8.977V21.126h2.391Zm7.172,0H16.149V21.126H18.54ZM16.149,4.391H11.368v1.2h4.782Z" transform="translate(-3 -2)" fill="#496193"/>
</svg>
