<svg xmlns="http://www.w3.org/2000/svg" width="29.58" height="38.824" viewBox="0 0 29.58 38.824">
  <path id="Path_2067" data-name="Path 2067" d="M33.58,39.824h-3.7v-3.7a5.546,5.546,0,0,0-5.546-5.546H13.244A5.546,5.546,0,0,0,7.7,36.127v3.7H4v-3.7a9.244,9.244,0,0,1,9.244-9.244H24.337a9.244,9.244,0,0,1,9.244,9.244ZM18.79,23.185A11.093,11.093,0,1,1,29.883,12.093,11.093,11.093,0,0,1,18.79,23.185Zm0-3.7a7.4,7.4,0,1,0-7.4-7.4A7.4,7.4,0,0,0,18.79,19.488Z" transform="translate(-4 -1)" fill="#96a5c6"/>
</svg>
