<svg xmlns="http://www.w3.org/2000/svg" width="28.359" height="28.495" viewBox="0 0 28.359 28.495">
  <path id="whatsapp" d="M24.477,4.141A14.123,14.123,0,0,0,2.253,21.178l-2,7.317,7.485-1.964a14.105,14.105,0,0,0,6.748,1.719h.006A14.126,14.126,0,0,0,24.477,4.141ZM14.488,25.865h0A11.722,11.722,0,0,1,8.51,24.23l-.428-.254L3.64,25.14,4.826,20.81l-.279-.444a11.736,11.736,0,1,1,9.942,5.5Zm6.437-8.79c-.353-.177-2.087-1.03-2.411-1.148s-.559-.176-.794.177-.911,1.148-1.117,1.383-.411.265-.764.088A9.636,9.636,0,0,1,13,15.825a10.642,10.642,0,0,1-1.963-2.444c-.206-.353,0-.526.155-.72a9.98,9.98,0,0,0,.882-1.207.649.649,0,0,0-.03-.618c-.088-.177-.794-1.913-1.088-2.62-.287-.688-.577-.595-.794-.606S9.725,7.6,9.489,7.6a1.3,1.3,0,0,0-.941.442,3.957,3.957,0,0,0-1.235,2.943,6.863,6.863,0,0,0,1.441,3.65,15.726,15.726,0,0,0,6.027,5.327,20.2,20.2,0,0,0,2.011.743,4.837,4.837,0,0,0,2.222.14A3.635,3.635,0,0,0,21.4,19.166a2.948,2.948,0,0,0,.206-1.678c-.088-.147-.323-.235-.676-.412Zm0,0" transform="translate(-0.25)" fill="#496093" fill-rule="evenodd"/>
</svg>
